<svg xmlns="http://www.w3.org/2000/svg" width="38.191" height="38" viewBox="0 0 38.191 38">
  <g id="icons8-dart" transform="translate(-3.809 -5)">
    <path id="Path_11" data-name="Path 11" d="M10,12l3,25L4.981,28.981a4,4,0,0,1-.8-4.52Z" fill="#1565c0"/>
    <path id="Path_12" data-name="Path 12" d="M27.319,6.319A4.5,4.5,0,0,0,22,5.538L10,12V32.343a4,4,0,0,0,1.172,2.828L13,37H35V32l7-11Z" fill="#42a5f5"/>
    <path id="Path_13" data-name="Path 13" d="M10,12H31.343a4,4,0,0,1,2.828,1.172L42,21V37H35Z" fill="#1565c0"/>
    <path id="Path_14" data-name="Path 14" d="M35,37H13l6,6H35Z" fill="#85cbf8"/>
  </g>
</svg>
