<svg xmlns="http://www.w3.org/2000/svg" width="32" height="43.999" viewBox="0 0 32 43.999">
  <g id="icons8-firebase" transform="translate(-8 -2.001)">
    <path id="Path_18" data-name="Path 18" d="M8,37,23.234,8.436a.841.841,0,0,1,1.494.02L30,19Z" fill="#ff8f00"/>
    <path id="Path_19" data-name="Path 19" d="M8,36.992l5.546-34.2a.943.943,0,0,1,1.767-.285L26,22.992Z" fill="#ffa000"/>
    <path id="Path_20" data-name="Path 20" d="M8.008,36.986l.2-.157L25.737,22.488l-4.944-9.476Z" fill="#ff6f00"/>
    <path id="Path_21" data-name="Path 21" d="M8,37,34.666,11.287a.954.954,0,0,1,1.606.547L40,37,25,45.743a2,2,0,0,1-1.961,0Z" fill="#ffc400"/>
  </g>
</svg>
