<svg xmlns="http://www.w3.org/2000/svg" xmlns:xlink="http://www.w3.org/1999/xlink" width="44" height="44" viewBox="0 0 44 44">
  <defs>
    <clipPath id="clip-path">
      <rect id="Rectangle_99" data-name="Rectangle 99" width="44" height="44" transform="translate(-209 4401)" fill="#fff" stroke="#707070" stroke-width="1"/>
    </clipPath>
  </defs>
  <g id="Mask_Group_35" data-name="Mask Group 35" transform="translate(209 -4401)" clip-path="url(#clip-path)">
    <path id="icons8-git" d="M48.863,25.589,29.989,6.716a3.163,3.163,0,0,0-2.2-.926h0a3.163,3.163,0,0,0-2.2.926l-4.053,4.053,4.747,4.747a3.205,3.205,0,0,1,1.505-.347,3.412,3.412,0,0,1,3.474,3.474,3.205,3.205,0,0,1-.347,1.505l4.632,4.632a3.205,3.205,0,0,1,1.505-.347,3.474,3.474,0,1,1-3.474,3.474,3.205,3.205,0,0,1,.347-1.505l-4.632-4.632c-.116,0-.232.116-.347.116V33.926a3.373,3.373,0,0,1,2.316,3.242,3.474,3.474,0,1,1-6.947,0,3.373,3.373,0,0,1,2.316-3.242V21.768a3.373,3.373,0,0,1-2.316-3.242,3.205,3.205,0,0,1,.347-1.505l-4.747-4.747L6.716,25.589a3.076,3.076,0,0,0,0,4.4L25.589,48.863h0a3.076,3.076,0,0,0,4.4,0L48.863,29.989a3.076,3.076,0,0,0,0-4.4Z" transform="translate(-214.789 4395.21)" fill="#f4511e"/>
  </g>
</svg>
