<svg xmlns="http://www.w3.org/2000/svg" xmlns:xlink="http://www.w3.org/1999/xlink" width="44" height="44" viewBox="0 0 44 44">
  <defs>
    <clipPath id="clip-path">
      <rect id="Rectangle_91" data-name="Rectangle 91" width="44" height="44" transform="translate(-209 4401)" fill="#fff" stroke="#707070" stroke-width="1"/>
    </clipPath>
  </defs>
  <g id="Mask_Group_27" data-name="Mask Group 27" transform="translate(209 -4401)" clip-path="url(#clip-path)">
    <g id="icons8-python" transform="translate(-214.283 4395.211)">
      <path id="Path_251" data-name="Path 251" d="M27.843,5.789a24.882,24.882,0,0,0-4.557.425c-4.455.776-5.267,2.4-5.267,5.407V16.21H28.44v2.316H12.586c-3.052,0-5.723,1.438-6.57,4.885a19.391,19.391,0,0,0,0,10.566c.758,3.081,2.429,5.391,5.483,5.391H15.7v-5.91a7.067,7.067,0,0,1,6.674-6.827h8.378c2.921,0,5.789-2.156,5.789-5.068V11.622a5.491,5.491,0,0,0-4.884-5.41A19.7,19.7,0,0,0,27.843,5.789Zm-5.771,4.631a1.737,1.737,0,1,1,0,3.474,1.737,1.737,0,1,1,0-3.474Z" fill="#0277bd"/>
      <path id="Path_252" data-name="Path 252" d="M26.721,49.788a24.882,24.882,0,0,0,4.557-.425c4.455-.776,5.267-2.4,5.267-5.407V39.367H26.125V37.052H41.98c3.052,0,5.723-1.438,6.57-4.885a19.391,19.391,0,0,0,0-10.566c-.76-3.081-2.43-5.391-5.484-5.391H38.86v5.91a7.067,7.067,0,0,1-6.674,6.827H23.808c-2.921,0-5.789,2.156-5.789,5.068v9.941a5.491,5.491,0,0,0,4.884,5.41A19.7,19.7,0,0,0,26.721,49.788Zm5.772-4.631a1.737,1.737,0,0,1,0-3.474,1.737,1.737,0,1,1,0,3.474Z" fill="#ffc107"/>
    </g>
  </g>
</svg>
