<svg xmlns="http://www.w3.org/2000/svg" width="39.986" height="39.899" viewBox="0 0 39.986 39.899">
  <g id="icons8-visual-studio-code-2019" transform="translate(-4.014 -4.05)">
    <path id="Path_15" data-name="Path 15" d="M44,11.11V36.89a2.981,2.981,0,0,1-1.98,2.82L33.2,43.85,34,33V15L33.2,4.15l8.82,4.14A2.981,2.981,0,0,1,44,11.11Z" fill="#29b6f6"/>
    <path id="Path_16" data-name="Path 16" d="M9,33.9,34,15V5.353a1.3,1.3,0,0,0-2.275-.86L4.658,29.239a2,2,0,0,0,.107,3.032s1.324,1.232,1.8,1.574A2.062,2.062,0,0,0,9,33.9Z" fill="#0277bd"/>
    <path id="Path_17" data-name="Path 17" d="M9,14.1,34,33v9.647a1.3,1.3,0,0,1-2.275.86L4.658,18.761a2,2,0,0,1,.107-3.032s1.324-1.232,1.8-1.574A2.062,2.062,0,0,1,9,14.1Z" fill="#0288d1"/>
  </g>
</svg>
