<svg xmlns="http://www.w3.org/2000/svg" width="18" height="18" viewBox="0 0 18 18">
  <path id="add-image" d="M9,15.75a.75.75,0,0,1-.75.75H3.75A3.754,3.754,0,0,1,0,12.75v-9A3.754,3.754,0,0,1,3.75,0h9A3.754,3.754,0,0,1,16.5,3.75v4.5a.75.75,0,0,1-1.5,0V3.75A2.253,2.253,0,0,0,12.75,1.5h-9A2.253,2.253,0,0,0,1.5,3.75V8.969L3.606,6.863a2.95,2.95,0,0,1,4.168,0l4.006,4.006a.75.75,0,1,1-1.06,1.06L6.714,7.924a1.451,1.451,0,0,0-2.048,0L1.5,11.09v1.66A2.253,2.253,0,0,0,3.75,15h4.5a.75.75,0,0,1,.75.75ZM11.25,2.625A2.25,2.25,0,1,1,9,4.875,2.253,2.253,0,0,1,11.25,2.625Zm0,1.5a.75.75,0,1,0,.75.75A.751.751,0,0,0,11.25,4.125Zm6,9.375H15V11.25a.75.75,0,0,0-1.5,0V13.5H11.25a.75.75,0,0,0,0,1.5H13.5v2.25a.75.75,0,0,0,1.5,0V15h2.25a.75.75,0,0,0,0-1.5Z" fill="#e6ebee"/>
</svg>
