<svg xmlns="http://www.w3.org/2000/svg" xmlns:xlink="http://www.w3.org/1999/xlink" width="265.375" height="118.462" viewBox="0 0 265.375 118.462">
  <defs>
    <radialGradient id="radial-gradient" cx="0.257" cy="0.5" r="0.816" gradientTransform="translate(0 -0.132) scale(1 1.263)" gradientUnits="objectBoundingBox">
      <stop offset="0" stop-color="#5af5c6"/>
      <stop offset="1" stop-color="#007571"/>
      <stop offset="1" stop-color="#61ffcd"/>
    </radialGradient>
  </defs>
  <path id="Intersection_10" data-name="Intersection 10" d="M809.384-1596.725c-.352-1.329-.624-1.518-2.359-1.79-4.339-.678-12.474-3.932-17.03-6.834a7.964,7.964,0,0,0-1.681-.922,4.885,4.885,0,0,0-1.356.678c-3.687,2.332-8.352,1.736-11.768-1.491a8.786,8.786,0,0,1-2.983-6.834,6.941,6.941,0,0,1,.977-4.04l.977-1.98-1-1.491a63.186,63.186,0,0,1-4.99-9.654,75.855,75.855,0,0,1-2.739-9.112c-.109-.542-.543-.895-1.627-1.436a11.015,11.015,0,0,1-4.638-4.854,9.7,9.7,0,0,1,1.519-10.332c.895-1.031,3.416-2.6,4.149-2.6.434,0,.488-.136.976-2.577.9-4.338,3.905-11.417,6.97-16.324l1.193-1.926-.733-1.464a7.928,7.928,0,0,1-.868-3.8c-.108-2.2-.054-2.495.706-4.1a9.176,9.176,0,0,1,4.583-4.827,6.739,6.739,0,0,1,4.176-.922,6.823,6.823,0,0,1,4.339,1.031l1.979,1,.95-.623a59.581,59.581,0,0,1,17.68-7.241c1.464-.272,1.545-.326,1.844-1.41a9.642,9.642,0,0,1,6.617-6.183,10.332,10.332,0,0,1,9.057,2.495,10.919,10.919,0,0,1,2.251,4.1c0,.271.38.461,1.166.6,5.857.922,15.159,4.556,19.768,7.782l.76.515,2.088-1.03a7,7,0,0,1,4.284-1.031,6.844,6.844,0,0,1,3.959.868,10.4,10.4,0,0,1,4.828,4.691,7.55,7.55,0,0,1,.7,4.068,7.768,7.768,0,0,1-.6,3.851,11.1,11.1,0,0,1-4.664,4.746c-1.329.678-1.844.759-4.095.759-2.278,0-2.766-.081-4.122-.759a9.908,9.908,0,0,1-4.529-4.529c-.6-1.274-.7-1.9-.732-4.176l-.054-2.685-1.98-1.22a55.8,55.8,0,0,0-9.6-4.529,56.35,56.35,0,0,0-7.078-1.763c-.136,0-.516.516-.787,1.139a10.128,10.128,0,0,1-4.339,4.258,10.39,10.39,0,0,1-6.4.488l-1.274-.38-7.7,7.755c-4.231,4.258-10.82,10.956-14.671,14.834l-6.969,7.1v23.837l10.548,10.332,10.549,10.359H834.63l1.193-1.329c.624-.732,4.149-4.61,7.809-8.623,3.661-3.987,8.678-9.518,11.119-12.285s4.719-5.315,5.044-5.694l.624-.678-.6-1.546-.6-1.572H835.037l-.461,1.22a10.763,10.763,0,0,1-4.339,4.691c-1.22.651-1.681.733-4.1.733s-2.875-.082-4.257-.76a9.668,9.668,0,0,1-4.475-4.475c-.678-1.355-.76-1.843-.76-4.121a7.585,7.585,0,0,1,.733-4.122,10.427,10.427,0,0,1,4.773-4.773,10.928,10.928,0,0,1,7.7-.136,10,10,0,0,1,4.583,4.583l.624,1.464h24.189l.569-1.193a10.046,10.046,0,0,1,6.427-5.179,8.635,8.635,0,0,1,6.59.814c2.034,1,4.013,2.9,3.742,3.606-.054.19-.027.271.136.19.325-.217.922,1.031,1.355,2.821a9.588,9.588,0,0,1-5.207,10.738c-.949.434-1.735.814-1.789.841a19.341,19.341,0,0,0-.6,2.441,56.681,56.681,0,0,1-6.888,16.894l-1.247,1.926.895,1.681c.787,1.518.868,1.9.868,4.122a7.389,7.389,0,0,1-.732,4.013c-2.523,5.4-9.085,7.484-13.83,4.393a4.951,4.951,0,0,0-1.329-.651,8.215,8.215,0,0,0-1.843.922,55.318,55.318,0,0,1-16.488,6.59l-2.468.461-.352,1.166a8.792,8.792,0,0,1-3.444,4.692,9.982,9.982,0,0,1-5.819,1.9A8.5,8.5,0,0,1,809.384-1596.725Zm-16.161-13.451A48.353,48.353,0,0,0,808-1604.264c1,.19,1.166.136,1.6-.542l.462-.733-3.335-3.335-3.363-3.362h-6.02C790.293-1612.237,790.131-1612.155,793.222-1610.176Zm40.784.706c-1.356,1.382-2.929,3.064-3.525,3.714l-1.084,1.166.949-.19a47,47,0,0,0,8.895-3.254c2.631-1.409,5.749-3.416,5.749-3.714a22.42,22.42,0,0,0-4.285-.217h-4.257Zm-16-.163c2.793,0,4.285.515,6.047,2.115a8.973,8.973,0,0,0,1.193.977,39.61,39.61,0,0,0,2.793-2.848l2.631-2.848H820.2c-6.183,0-10.468.109-10.468.244a10.833,10.833,0,0,0,1.79,1.871l1.762,1.6,1.139-.57a5.944,5.944,0,0,1,3.065-.545C817.655-1609.637,817.826-1609.636,818.007-1609.633Zm45.585-32.405c-.028,0-1.247,1.437-2.74,3.146-2.549,2.956-7.755,8.732-16.65,18.494-2.088,2.3-3.769,4.23-3.715,4.285a10.99,10.99,0,0,0,2.387-.082l2.278-.163.461-1.328a8.763,8.763,0,0,1,4.447-4.909,6.88,6.88,0,0,1,4.149-.895,14.85,14.85,0,0,1,2.9.217c.489.19.706,0,1.573-1.356,2.793-4.447,5.749-11.605,6.508-15.836.163-.922.136-1-.7-1.3a6.28,6.28,0,0,0-.878-.275A.024.024,0,0,0,863.592-1642.038Zm-79.075,15v3.66l1.437.652a9.6,9.6,0,0,1,5.179,5.938c.136.434.57.489,4.149.489H799.3l-7.187-7.187c-3.959-3.959-7.267-7.187-7.375-7.187A14.451,14.451,0,0,0,784.517-1627.042Zm-12.664-14.7c-1,.6-1,.461-.028,3.878a54.42,54.42,0,0,0,4.095,10.223c2.17,4.2,2.522,4.637,3.661,4.393l.868-.19v-11.145l-3.851-3.851-3.877-3.851Zm6.562-13.1-1.9,1.844.244,1.518a8.986,8.986,0,0,1-.787,5.152c-.379.732-.352.76,1.573,2.712,1.085,1.057,2.224,2.2,2.576,2.468l.6.515v-8.026c0-4.448-.081-8.054-.19-8.054A14.391,14.391,0,0,0,778.415-1654.838Zm-1.22-19.741a49.018,49.018,0,0,0-6.1,14.806c-.136.706-.081.868.407,1.03a8.59,8.59,0,0,1,1.735,1.085l1.166.9,3.172-3.173,3.146-3.146v-6.7a61.81,61.81,0,0,0-.19-6.807,9.282,9.282,0,0,0-.976-.3,1.518,1.518,0,0,0-.328-.048C778.759-1676.932,778.448-1676.5,777.2-1674.58Zm29.423-20.745a47.938,47.938,0,0,0-13.261,5.559l-2.2,1.382v2.495a7.509,7.509,0,0,1-.706,3.987,9.312,9.312,0,0,1-4.474,4.474l-1.464.651V-1672c0,3.2.081,4.746.271,4.665.163-.055,5.884-5.885,12.718-12.963l12.447-12.881-.651-.949a3.925,3.925,0,0,1-.651-1.274c0-.194.013-.3-.2-.3A13.2,13.2,0,0,0,806.618-1695.325Zm-5.044,11.417c-.353.434-.326.461.108.108a1.688,1.688,0,0,0,.462-.461c0-.068-.022-.1-.062-.1C801.994-1684.363,801.815-1684.205,801.574-1683.908Zm147.713,78.733v-53.475h9.9l.076,2.4a22.706,22.706,0,0,1,2.662-1.425,22.883,22.883,0,0,1,3.488-1.275,13.588,13.588,0,0,1,3.675-.525,14.1,14.1,0,0,1,8.138,2.138,12.294,12.294,0,0,1,4.575,6.45,34.463,34.463,0,0,1,1.463,10.912,32.738,32.738,0,0,1-1.65,11.4,11.749,11.749,0,0,1-5.287,6.376,19.6,19.6,0,0,1-9.562,2.024,29.778,29.778,0,0,1-4.05-.3q-2.175-.3-3.45-.6v15.9Zm14.7-45.6a22.867,22.867,0,0,0-2.625.751,14.54,14.54,0,0,0-2.1.9v20.1q.9.076,2.588.3a25.326,25.326,0,0,0,3.337.224,7.8,7.8,0,0,0,4.725-1.274,6.867,6.867,0,0,0,2.437-3.863,25.243,25.243,0,0,0,.713-6.562q0-6.151-1.687-8.513a5.585,5.585,0,0,0-4.837-2.362A11.781,11.781,0,0,0,963.987-1650.776Zm-52.913,27.638q-2.962-2.963-2.963-8.962a12.2,12.2,0,0,1,1.5-6.563,8.591,8.591,0,0,1,4.462-3.451,25,25,0,0,1,7.238-1.312l9.15-.825v-2.25q0-2.7-1.35-3.787a6.23,6.23,0,0,0-3.975-1.087q-2.1,0-4.838.15t-5.4.374q-2.662.225-4.612.45l-.3-7.05q1.949-.451,4.687-.938t5.738-.788q3-.3,5.55-.3a23.194,23.194,0,0,1,8.024,1.2,9.252,9.252,0,0,1,4.875,3.938,14.254,14.254,0,0,1,1.65,7.388v17.175a2.145,2.145,0,0,0,1.125,1.613,6.855,6.855,0,0,0,2.25.787l-.225,6.9q-1.2,0-2.363.038t-2.212,0a13.1,13.1,0,0,1-1.875-.188,8.394,8.394,0,0,1-2.963-.9,8.608,8.608,0,0,1-1.987-1.425q-1.2.525-3.226,1.2a33.976,33.976,0,0,1-4.388,1.125,25.344,25.344,0,0,1-4.762.45Q914.036-1620.176,911.075-1623.137Zm11.738-14.213a5.186,5.186,0,0,0-3.563,1.463,5.115,5.115,0,0,0-1.087,3.487,5.529,5.529,0,0,0,1.012,3.525,3.734,3.734,0,0,0,3.112,1.275,16.07,16.07,0,0,0,3-.3,30.107,30.107,0,0,0,2.962-.713,17.672,17.672,0,0,0,2.213-.787v-8.625Zm90.824,16.35v-18.975a34.779,34.779,0,0,0-.45-6.263,5.724,5.724,0,0,0-1.687-3.413,5.757,5.757,0,0,0-3.787-1.049,17.743,17.743,0,0,0-2.775.225,23.214,23.214,0,0,0-2.738.6q-1.312.375-2.138.676v28.2h-9.975v-53.025h9.975v16.725q1.276-.45,3.038-.937t3.675-.862a18.247,18.247,0,0,1,3.487-.375,18.187,18.187,0,0,1,6.563,1.013,8.588,8.588,0,0,1,4.088,3.225,14.952,14.952,0,0,1,2.137,5.812,50.812,50.812,0,0,1,.637,8.7V-1621Zm-130.2,0v-37.651h9.975v4.425a30.08,30.08,0,0,1,3.15-2.062,36.628,36.628,0,0,1,4.088-2.026,17.507,17.507,0,0,1,4.237-1.238v9.675a26.166,26.166,0,0,0-4.125,1.012q-2.175.713-4.088,1.538t-3.262,1.5V-1621Z" transform="translate(-758.312 1709)" fill="url(#radial-gradient)"/>
</svg>
