<svg xmlns="http://www.w3.org/2000/svg" width="22" height="22.002" viewBox="0 0 22 22.002">
  <path id="arrow-right-to-bracket" d="M11.548,18.837a1,1,0,0,1-1.1-1.674A19.43,19.43,0,0,0,15.032,13H2a1,1,0,0,1,0-2H15.032a19.43,19.43,0,0,0-4.58-4.163,1,1,0,0,1,1.1-1.674,21.127,21.127,0,0,1,6.3,6.3,1,1,0,0,1,0,1.078A21.139,21.139,0,0,1,11.548,18.837ZM21.978,2.642a1,1,0,0,0-.656-.736,24.426,24.426,0,0,0-5.235-.9.985.985,0,0,0-1.082.91A1,1,0,0,0,15.915,3a27.635,27.635,0,0,1,4.225.654A48.4,48.4,0,0,1,21,12a48.51,48.51,0,0,1-.861,8.35,27.421,27.421,0,0,1-4.225.654A1,1,0,0,0,16.087,23a24.426,24.426,0,0,0,5.235-.9,1,1,0,0,0,.656-.736A50.385,50.385,0,0,0,23,12a50.385,50.385,0,0,0-1.022-9.358Z" transform="translate(-1 -0.999)" fill="#f2f5f7"/>
</svg>
