<svg xmlns="http://www.w3.org/2000/svg" width="18" height="19.639" viewBox="0 0 18 19.639">
  <path id="bookmark" d="M16.657,19.636a2.291,2.291,0,0,1-1.626-.683l-5.032-5L4.968,18.956a2.291,2.291,0,0,1-2.532.5A2.291,2.291,0,0,1,1,17.308V4.091A4.091,4.091,0,0,1,5.091,0h9.818A4.091,4.091,0,0,1,19,4.091V17.308a2.291,2.291,0,0,1-1.433,2.147,2.346,2.346,0,0,1-.91.182Zm-11.566-18A2.455,2.455,0,0,0,2.636,4.091V17.308a.69.69,0,0,0,1.176.491h0l5.615-5.581a.818.818,0,0,1,1.154,0L16.189,17.8a.69.69,0,0,0,1.176-.491V4.091a2.455,2.455,0,0,0-2.455-2.455Z" transform="translate(-1)" fill="#f2f5f7"/>
</svg>
