<svg xmlns="http://www.w3.org/2000/svg" width="18" height="17.999" viewBox="0 0 18 17.999">
  <path id="cake-birthday" d="M17.25,16.5H16.5v-6a3.754,3.754,0,0,0-3.75-3.75h-3V4.53a1.875,1.875,0,0,0,1.125-1.717A5.47,5.47,0,0,0,9.553.246a.75.75,0,0,0-1.107,0A5.47,5.47,0,0,0,7.125,2.813,1.875,1.875,0,0,0,8.25,4.53V6.75h-3A3.755,3.755,0,0,0,1.5,10.5v6H.75a.75.75,0,0,0,0,1.5h16.5a.75.75,0,0,0,0-1.5Zm-12-8.25h7.5A2.25,2.25,0,0,1,15,10.5v1.485c-.7-.075-1.125-.525-1.125-.735a.75.75,0,0,0-1.5,0c0,.257-.512.75-1.312.75-.817,0-1.312-.521-1.312-.75a.75.75,0,0,0-1.5,0c0,.257-.512.75-1.312.75-.817,0-1.312-.521-1.312-.75a.75.75,0,0,0-1.5,0c0,.236-.434.666-1.125.736V10.5A2.25,2.25,0,0,1,5.25,8.25ZM3,13.485a3.117,3.117,0,0,0,1.875-.734A3.232,3.232,0,0,0,9,12.762a3.232,3.232,0,0,0,4.125-.011A3.117,3.117,0,0,0,15,13.484V16.5H3Z" transform="translate(0 -0.002)" fill="#858585"/>
</svg>
