<svg id="_01_align_center" data-name="01 align center" xmlns="http://www.w3.org/2000/svg" width="20" height="20" viewBox="0 0 20 20">
  <path id="Path_423" data-name="Path 423" d="M10,0A10,10,0,1,0,20,10,10,10,0,0,0,10,0Zm7.206,5.833H14.522a16.4,16.4,0,0,0-2.351-3.87,8.359,8.359,0,0,1,5.035,3.87ZM13.75,10a8.509,8.509,0,0,1-.4,2.5H6.647a8.509,8.509,0,0,1-.4-2.5,8.509,8.509,0,0,1,.4-2.5h6.707a8.509,8.509,0,0,1,.4,2.5ZM7.315,14.167h5.37A16.345,16.345,0,0,1,10,17.99a16.308,16.308,0,0,1-2.685-3.823Zm0-8.333A16.345,16.345,0,0,1,10,2.01a16.308,16.308,0,0,1,2.685,3.823Zm.518-3.87a16.4,16.4,0,0,0-2.355,3.87H2.794a8.359,8.359,0,0,1,5.039-3.87ZM2.051,7.5H4.917A10.013,10.013,0,0,0,4.583,10a10.013,10.013,0,0,0,.333,2.5H2.051a8.327,8.327,0,0,1,0-5Zm.743,6.667H5.478a16.4,16.4,0,0,0,2.355,3.87,8.359,8.359,0,0,1-5.039-3.87Zm9.377,3.87a16.4,16.4,0,0,0,2.351-3.87h2.684a8.359,8.359,0,0,1-5.035,3.87ZM17.949,12.5H15.083a10.013,10.013,0,0,0,.333-2.5,10.013,10.013,0,0,0-.333-2.5h2.864a8.327,8.327,0,0,1,0,5Z" fill="#39393a"/>
</svg>
