<svg xmlns="http://www.w3.org/2000/svg" width="28" height="28" viewBox="0 0 28 28">
  <path id="circle-user_10_" data-name="circle-user (10)" d="M15,1C5.187,1,1,5.187,1,15S5.187,29,15,29s14-4.187,14-14S24.813,1,15,1ZM9.536,25.786c.48-1.965,1.744-3.15,5.464-3.15s4.985,1.185,5.464,3.15A18.964,18.964,0,0,1,15,26.455a18.964,18.964,0,0,1-5.464-.668Zm13.253-1.075C21.5,20.617,17.805,20.09,15,20.09s-6.5.526-7.788,4.621C4.632,22.993,3.547,19.908,3.547,15,3.545,6.65,6.65,3.545,15,3.545S26.455,6.65,26.455,15c0,4.909-1.086,7.994-3.667,9.712ZM15,7.364c-3.425,0-5.091,1.666-5.091,5.091S11.575,17.545,15,17.545s5.091-1.666,5.091-5.091S18.425,7.364,15,7.364ZM15,15c-2.022,0-2.545-.523-2.545-2.545S12.978,9.909,15,9.909s2.545.523,2.545,2.545S17.022,15,15,15Z" transform="translate(-1 -1)" fill="#39393a"/>
</svg>
