<svg xmlns="http://www.w3.org/2000/svg" width="24" height="22" viewBox="0 0 24 22">
  <path id="code-window" d="M7.339,14.7a1.2,1.2,0,0,0,.018,1.693l2.478,2.237a.5.5,0,1,1-.67.742L6.671,17.118a2.2,2.2,0,0,1-.026-3.137L9.16,11.635a.5.5,0,1,1,.682.73L7.34,14.7ZM24,5.5v13A4.505,4.505,0,0,1,19.5,23H4.5A4.505,4.505,0,0,1,0,18.5V5.5A4.505,4.505,0,0,1,4.5,1h15A4.505,4.505,0,0,1,24,5.5ZM1,5.5V8H23V5.5A3.5,3.5,0,0,0,19.5,2H4.5A3.5,3.5,0,0,0,1,5.5Zm22,13V9H1v9.5A3.5,3.5,0,0,0,4.5,22h15A3.5,3.5,0,0,0,23,18.5ZM4,6A1,1,0,1,0,3,5,1,1,0,0,0,4,6ZM7,6A1,1,0,1,0,6,5,1,1,0,0,0,7,6Zm3,0A1,1,0,1,0,9,5,1,1,0,0,0,10,6Zm4.841,5.635a.5.5,0,1,0-.682.73l2.489,2.322a1.194,1.194,0,0,1,.352.854,1.18,1.18,0,0,1-.341.835l-2.494,2.253a.5.5,0,1,0,.67.742L17.346,17.1a2.2,2.2,0,0,0,0-3.134l-2.5-2.334Z" transform="translate(0 -1)" fill="#858585"/>
</svg>
