<svg xmlns="http://www.w3.org/2000/svg" width="24" height="24" viewBox="0 0 24 24">
  <path id="comment-dots" d="M14.091,13A1.091,1.091,0,1,1,13,11.909,1.091,1.091,0,0,1,14.091,13Zm3.273-1.091A1.091,1.091,0,1,0,18.455,13,1.091,1.091,0,0,0,17.364,11.909Zm-8.727,0A1.091,1.091,0,1,0,9.727,13,1.091,1.091,0,0,0,8.636,11.909ZM25,13c0,3.756-.527,10.181-.549,10.453a1.09,1.09,0,0,1-.994,1C23.2,24.473,17.039,25,13,25,4.589,25,1,21.411,1,13S4.589,1,13,1,25,4.589,25,13Zm-2.182,0c0-7.157-2.661-9.818-9.818-9.818S3.182,5.843,3.182,13,5.843,22.818,13,22.818c3.038,0,7.453-.319,9.348-.467.147-1.943.47-6.511.47-9.351Z" transform="translate(-1 -1)" fill="#39393a"/>
</svg>
