<svg xmlns="http://www.w3.org/2000/svg" width="24" height="24" viewBox="0 0 24 24">
  <path id="coworking" d="M9.5,2.5A2.5,2.5,0,1,1,12,5,2.5,2.5,0,0,1,9.5,2.5ZM10,9a1,1,0,0,1,1-1h2a1,1,0,0,1,1,1v2h2V9a3,3,0,0,0-3-3H11A3,3,0,0,0,8,9v2h2ZM3,9A2.5,2.5,0,1,0,.5,6.5,2.5,2.5,0,0,0,3,9Zm3,9H9v6H7V20H3a3,3,0,0,1-3-3V13a3,3,0,0,1,6,0ZM4,18V13a1,1,0,0,0-2,0v4a1,1,0,0,0,1,1ZM21,9a2.5,2.5,0,1,0-2.5-2.5A2.5,2.5,0,0,0,21,9Zm3,4v4a3,3,0,0,1-3,3H17v4H15V18h3V13a3,3,0,0,1,6,0Zm-2,0a1,1,0,0,0-2,0v5h1a1,1,0,0,0,1-1Zm-6,0H8v2h8ZM0,24H5V22H0Zm19,0h5V22H19Z" fill="#f2f5f7"/>
</svg>
