<svg xmlns="http://www.w3.org/2000/svg" width="18" height="21.599" viewBox="0 0 18 21.599">
  <path id="cv" d="M11.683,9.422l-.965-4.727a.72.72,0,0,1,1.411-.288l.965,4.727a.657.657,0,0,0,.045.143.815.815,0,0,0,.051-.169l.948-4.7a.72.72,0,1,1,1.411.284L14.6,9.382A1.6,1.6,0,0,1,13.139,10.8a1.6,1.6,0,0,1-1.456-1.378ZM7.85,5.04a.81.81,0,0,1,.777.58.69.69,0,0,0,.75.679.659.659,0,0,0,.724-.716,2.258,2.258,0,0,0-4.5.266v2.7a2.259,2.259,0,0,0,4.5.274A.681.681,0,0,0,9.38,8.1a.716.716,0,0,0-.751.672A.81.81,0,0,1,7.04,8.55V5.85A.811.811,0,0,1,7.85,5.04ZM20,4.5v7.663a6.262,6.262,0,0,1-1.845,4.455l-3.137,3.135A6.256,6.256,0,0,1,10.562,21.6H6.5A4.5,4.5,0,0,1,2,17.1V4.5A4.506,4.506,0,0,1,6.5,0h9A4.5,4.5,0,0,1,20,4.5ZM10.563,19.8c.148,0,.291-.029.436-.042V15.3a2.7,2.7,0,0,1,2.7-2.7h4.457c.014-.146.042-.289.042-.436V4.5a2.7,2.7,0,0,0-2.7-2.7h-9A2.7,2.7,0,0,0,3.8,4.5V17.1a2.7,2.7,0,0,0,2.7,2.7Zm6.319-4.454a4.49,4.49,0,0,0,.7-.946H13.7a.9.9,0,0,0-.9.9v3.884a4.485,4.485,0,0,0,.945-.7l3.137-3.135Z" transform="translate(-1.999)" fill="#707070" opacity="0.8"/>
</svg>
