<svg xmlns="http://www.w3.org/2000/svg" width="24" height="24" viewBox="0 0 24 24">
  <path id="data-model" d="M20,0c-1.927,0-4,.548-4,1.75V5H8V1.75C8,.548,5.927,0,4,0S0,.548,0,1.75V9.333c0,1.055,1.687,1.57,3.5,1.651v2.034C1.731,13.1,0,13.652,0,14.75v7.583C0,23.484,2.009,24,4,24s4-.516,4-1.667V14.75c0-1.1-1.731-1.645-3.5-1.732V10.984c1.813-.08,3.5-.6,3.5-1.651V8.567l8,6.667v7.1C16,23.484,18.009,24,20,24s4-.516,4-1.667V14.75c0-1.2-2.073-1.75-4-1.75-1.553,0-3.181.363-3.763,1.13L8,7.266V6h8V9.333C16,10.484,18.009,11,20,11s4-.516,4-1.667V1.75C24,.548,21.927,0,20,0ZM17,18.484A7.738,7.738,0,0,0,20,19a7.748,7.748,0,0,0,3-.517v1.322c-.095.2-1.121.695-3,.695s-2.9-.49-3-.692ZM20,18c-1.871,0-2.9-.49-3-.692V15.946a7.421,7.421,0,0,0,3,.554,7.409,7.409,0,0,0,3-.555v1.361c-.1.2-1.124.694-3,.694Zm0,5c-1.886,0-2.914-.5-3-.667V20.984a7.738,7.738,0,0,0,3,.516,7.739,7.739,0,0,0,3-.518V22.3c-.09.2-1.118.7-3,.7Zm0-9c1.922,0,2.939.55,3,.741-.062.209-1.079.759-3,.759-1.9,0-2.911-.535-3-.75C17.089,14.535,18.105,14,20,14ZM1,5.484A7.738,7.738,0,0,0,4,6a7.748,7.748,0,0,0,3-.517V6.8c-.095.2-1.121.7-3,.7S1.1,7.01,1,6.808ZM1,2.946A7.421,7.421,0,0,0,4,3.5a7.409,7.409,0,0,0,3-.555V4.306C6.9,4.506,5.877,5,4,5s-2.895-.49-3-.692ZM4,1c1.922,0,2.939.55,3,.741C6.939,1.95,5.922,2.5,4,2.5c-1.9,0-2.911-.535-3-.75C1.089,1.535,2.105,1,4,1ZM1,18.484A7.738,7.738,0,0,0,4,19a7.748,7.748,0,0,0,3-.517v1.322c-.095.2-1.121.695-3,.695s-2.895-.49-3-.692ZM4,18c-1.871,0-2.895-.49-3-.692V15.946A7.421,7.421,0,0,0,4,16.5a7.409,7.409,0,0,0,3-.555v1.361c-.1.2-1.124.694-3,.694Zm0,5c-1.886,0-2.914-.5-3-.667V20.984A7.738,7.738,0,0,0,4,21.5a7.739,7.739,0,0,0,3-.518V22.3c-.09.2-1.118.7-3,.7Zm3-8.259c-.062.209-1.079.759-3,.759-1.9,0-2.911-.535-3-.75.087-.215,1.1-.75,3-.75C5.922,14,6.939,14.55,7,14.741ZM4,10c-1.886,0-2.914-.5-3-.667V7.984A7.738,7.738,0,0,0,4,8.5a7.739,7.739,0,0,0,3-.518V9.3c-.09.2-1.118.7-3,.7ZM17,5.484A7.738,7.738,0,0,0,20,6a7.748,7.748,0,0,0,3-.517V6.8c-.095.2-1.121.7-3,.7s-2.9-.49-3-.692ZM20,5c-1.871,0-2.9-.49-3-.692V2.946A7.421,7.421,0,0,0,20,3.5a7.409,7.409,0,0,0,3-.555V4.306C22.9,4.506,21.877,5,20,5Zm0-4c1.922,0,2.939.55,3,.741-.062.209-1.079.759-3,.759-1.9,0-2.911-.535-3-.75C17.089,1.535,18.105,1,20,1Zm0,9c-1.886,0-2.914-.5-3-.667V7.984A7.738,7.738,0,0,0,20,8.5a7.739,7.739,0,0,0,3-.518V9.3C22.914,9.5,21.886,10,20,10Z" fill="#858585"/>
</svg>
