<svg xmlns="http://www.w3.org/2000/svg" width="18" height="18" viewBox="0 0 18 18">
  <path id="delete-user" d="M6.75,9a4.5,4.5,0,1,0-4.5-4.5A4.5,4.5,0,0,0,6.75,9Zm0-7.5a3,3,0,1,1-3,3,3,3,0,0,1,3-3ZM13.5,17.25a.75.75,0,1,1-1.5,0,5.25,5.25,0,0,0-10.5,0,.75.75,0,1,1-1.5,0,6.75,6.75,0,0,1,13.5,0Zm4.28-6.53A.75.75,0,1,1,16.72,11.78l-1.345-1.345L14.03,11.78A.75.75,0,1,1,12.97,10.72l1.345-1.345L12.97,8.03A.75.75,0,1,1,14.03,6.97l1.345,1.345L16.72,6.97A.75.75,0,1,1,17.78,8.03L16.435,9.375Z" fill="#39393a"/>
</svg>
