<svg xmlns="http://www.w3.org/2000/svg" width="19.066" height="17.359" viewBox="0 0 19.066 17.359">
  <g id="Path_6" data-name="Path 6" transform="translate(21.533 22.303) rotate(180)" fill="none">
    <path d="M8.422,6.958a4.185,4.185,0,0,1,7.155,0L21.106,17.03c1.33,2.423-.6,5.273-3.578,5.273H6.472c-2.974,0-4.908-2.851-3.578-5.273Z" stroke="none"/>
    <path d="M 12 7.944267272949219 C 11.66324996948242 7.944267272949219 11.2374095916748 8.064508438110352 11.05216979980469 8.401987075805664 L 5.524309158325195 18.47302627563477 C 5.468360900878906 18.57496643066406 5.426750183105469 18.68102645874023 5.53080940246582 18.85684776306152 C 5.65839958190918 19.07242774963379 5.972690582275391 19.30278778076172 6.472139358520508 19.30278778076172 L 17.52786064147949 19.30278778076172 C 18.02730941772461 19.30278778076172 18.34159088134766 19.07242774963379 18.46919059753418 18.85684776306152 C 18.57324981689453 18.68102645874023 18.53163909912109 18.57496643066406 18.47568893432617 18.47302627563477 L 12.94783020019531 8.401987075805664 C 12.7625904083252 8.064508438110352 12.33675003051758 7.944267272949219 12 7.944267272949219 M 12 4.944269180297852 C 13.42033004760742 4.944269180297852 14.84066009521484 5.615673065185547 15.57771015167236 6.958477020263672 L 21.10556983947754 17.02951812744141 C 22.43536949157715 19.45224761962891 20.50139045715332 22.30278778076172 17.52786064147949 22.30278778076172 L 6.472139358520508 22.30278778076172 C 3.49860954284668 22.30278778076172 1.564619064331055 19.45224761962891 2.894430160522461 17.02951812744141 L 8.422289848327637 6.958477020263672 C 9.159339904785156 5.615673065185547 10.57966995239258 4.944269180297852 12 4.944269180297852 Z" stroke="none" fill="#f2f5f7"/>
  </g>
</svg>
