<svg xmlns="http://www.w3.org/2000/svg" width="12" height="12" viewBox="0 0 12 12">
  <path id="earth-africa" d="M6,0a6,6,0,1,0,6,6A6.007,6.007,0,0,0,6,0ZM6,11A5,5,0,0,1,3.239,1.834l.623.546a.4.4,0,0,1,.138.3V3.1a.4.4,0,0,0,.4.4h.363a.844.844,0,0,0,.433-.12l.773-.464a.414.414,0,0,1,.505.062l.4.4A.413.413,0,0,1,7,3.672v.416a.413.413,0,0,1-.413.413H5.27a.891.891,0,0,0-.495.15L3.9,5.236a.892.892,0,0,0-.4.742V6.5a1,1,0,0,0,1,1h.714a.367.367,0,0,1,.356.278l.346,1.387a.443.443,0,0,0,.43.335h.4a.442.442,0,0,0,.38-.215l1.247-2.08A.868.868,0,0,0,8.5,6.761V6.109A.864.864,0,0,0,8.245,5.5l-.5-.5H8.877a1.5,1.5,0,0,0,1.061-.439l.618-.617A5,5,0,0,1,6,11Z" fill="#858585"/>
</svg>
