<svg xmlns="http://www.w3.org/2000/svg" width="24" height="24" viewBox="0 0 24 24">
  <path id="earth-europa" d="M7.688,7.827,7.159,9.1A.812.812,0,0,1,6.1,9.534l-.212-.088a.813.813,0,0,1-.376-1.181L6.25,7.083a.812.812,0,0,1,1.437.744ZM24,12A12,12,0,1,1,12,0,12.013,12.013,0,0,1,24,12ZM12,22V20.2a.892.892,0,0,0-.675-.865l-.812-.2a1.916,1.916,0,0,1-.887-.5L8.559,17.559A1.91,1.91,0,0,1,8,16.209v-.291a1.909,1.909,0,0,1,.717-1.491l1.26-1.008A1.909,1.909,0,0,1,11.17,13h1.252a1.908,1.908,0,0,1,1.059.321l2.243,1.495a1.1,1.1,0,0,0,.608.184h.714a1.094,1.094,0,0,1,.775.321l.909.909a1.1,1.1,0,0,0,.649.314l1.44.166a9.954,9.954,0,0,0,.592-1.329L18.43,14.067v-.011a.608.608,0,0,1-.145-1.13v-.009l.782-.377s.433-.183.433-.538c0-.413-.5-.5-.5-.5l-2.423-.808a.844.844,0,0,1-.577-.8A.891.891,0,0,1,16.891,9h1.263A.846.846,0,0,0,19,8.156V7.848A.846.846,0,0,0,18.154,7h-.631a.847.847,0,0,0-.757.468l-.583,1.166a.986.986,0,0,1-.571.495L15.1,9.3s-.392.093-.479.3a.683.683,0,0,0,.082.495l.119.358,0,0a.668.668,0,0,1,.038.19.7.7,0,0,1-.7.7A.922.922,0,0,1,13.5,11l-.558-.558a.5.5,0,0,0-.4-.211.563.563,0,0,0-.428.289l-.824,1.1a.8.8,0,0,1-.773.382c-.487,0-1.268-.813-1.268-.813a1.521,1.521,0,0,1-.133-1.445l.935-2.181a1.523,1.523,0,0,1,.8-.8l2.7-1.106a.659.659,0,0,0,.471-.606c0-.471-.548-.442-.548-.442L11,5a.518.518,0,0,1-.6-.24A.891.891,0,0,1,10.5,4l.994-1.987A10,10,0,0,0,12,22Z" fill="#f2f5f7"/>
</svg>
