<svg xmlns="http://www.w3.org/2000/svg" width="26" height="22" viewBox="0 0 26 22">
  <path id="envelope" d="M20.042,1H5.958A5.749,5.749,0,0,0,0,6.5v11A5.749,5.749,0,0,0,5.958,23H20.042A5.749,5.749,0,0,0,26,17.5V6.5A5.749,5.749,0,0,0,20.042,1Zm0,3a2.813,2.813,0,0,1,1.78.631l-7.042,6.5a2.728,2.728,0,0,1-3.551,0l-7.042-6.5A2.812,2.812,0,0,1,5.958,4Zm0,16H5.958A2.61,2.61,0,0,1,3.25,17.5V8.017l5.676,5.239a6.1,6.1,0,0,0,8.148,0L22.75,8.017V17.5A2.61,2.61,0,0,1,20.042,20Z" transform="translate(0 -1)" fill="#858585"/>
</svg>
