<svg xmlns="http://www.w3.org/2000/svg" width="18" height="21.6" viewBox="0 0 18 21.6">
  <path id="Exclusion_1" data-name="Exclusion 1" d="M13.5,21.6h-9A4.512,4.512,0,0,1,0,17.1V6.459A2.7,2.7,0,0,1,1.389,4.1L8.563.113a.9.9,0,0,1,.875,0L16.612,4.1A2.7,2.7,0,0,1,18,6.459V17.1A4.512,4.512,0,0,1,13.5,21.6ZM7.53,15.808H9.246V17.8h.972V15.808h1.26v-.936H10.23V12.8h1.247l.013-.924H10.23l.012-2.064H9.258v2.064h-1.7V9.808H6.582L6.57,11.872H5.322V12.8H6.57v2.075H5.322l-.012.936H6.558V17.8H7.53V15.809ZM9,4.95A1.35,1.35,0,1,0,10.35,6.3,1.352,1.352,0,0,0,9,4.95Zm.246,9.922h-1.7V12.8H9.258l-.013,2.074Z" fill="#f2f5f7"/>
</svg>
