<svg xmlns="http://www.w3.org/2000/svg" width="20" height="20.835" viewBox="0 0 20 20.835">
  <g id="exit" transform="translate(-1.44 -0.998)">
    <path id="Path_424" data-name="Path 424" d="M22.488,11.077c-.063-.143-1.607-3.541-7.361-6.075a1.038,1.038,0,0,0-1.334.43.886.886,0,0,0,.469,1.224,15.031,15.031,0,0,1,5.5,3.845H6.745a.921.921,0,1,0,0,1.835H19.75a15.123,15.123,0,0,1-5.488,3.845.886.886,0,0,0-.469,1.224,1.011,1.011,0,0,0,.9.52,1.073,1.073,0,0,0,.432-.091c5.577-2.457,7.189-5.7,7.354-6.06a.851.851,0,0,0,.007-.7Z" transform="translate(-1.12)" fill="#39393a"/>
    <path id="Path_425" data-name="Path 425" d="M8.373,19.947c-1.75-.217-3.18-.5-3.922-.668a31.685,31.685,0,0,1-1.012-7.861A31.676,31.676,0,0,1,4.452,3.556c.736-.164,2.159-.454,3.92-.67a.957.957,0,0,0,.862-1.062.986.986,0,0,0-1.12-.817,40.573,40.573,0,0,0-4.738.849.978.978,0,0,0-.693.639A32.025,32.025,0,0,0,1.44,11.418,32.033,32.033,0,0,0,2.683,20.34a.979.979,0,0,0,.7.64,42.3,42.3,0,0,0,4.732.845,1.23,1.23,0,0,0,.131.008.982.982,0,0,0,.99-.824.958.958,0,0,0-.861-1.063Z" transform="translate(0 0)" fill="#39393a"/>
  </g>
</svg>
