<svg xmlns="http://www.w3.org/2000/svg" width="24" height="24" viewBox="0 0 24 24">
  <g id="icons8-facebook" transform="translate(-5 -5)">
    <path id="Path_28" data-name="Path 28" d="M17,5A12,12,0,1,0,29,17,12,12,0,0,0,17,5Z" fill="#039be5"/>
    <path id="Path_29" data-name="Path 29" d="M22.845,23.055h3.105l.488-3.155H22.845V18.176c0-1.311.428-2.473,1.654-2.473h1.97V12.95a16.733,16.733,0,0,0-2.461-.149c-2.888,0-4.581,1.525-4.581,5v2.1H16.457v3.155h2.969v8.671a10.881,10.881,0,0,0,3.419.026Z" transform="translate(-4.221 -2.874)" fill="#fff"/>
  </g>
</svg>
