<svg xmlns="http://www.w3.org/2000/svg" width="24" height="24" viewBox="0 0 24 24">
  <g id="icons8-github" transform="translate(-4 -4)">
    <path id="Path_47" data-name="Path 47" d="M27.4,17.2A10.2,10.2,0,1,1,17.2,7,10.191,10.191,0,0,1,27.4,17.2Z" transform="translate(-1.2 -1.2)" fill="#fff"/>
    <path id="Path_48" data-name="Path 48" d="M15.68,34.84v-3.3a.3.3,0,0,1,.6,0v3.3h1.2v-3.9a.3.3,0,1,1,.6,0v3.9h1.2v-3.3a.3.3,0,1,1,.6,0v3.3h1.08a1.089,1.089,0,0,0,.12-.66V31.84c0-1.32-1.14-3.12-2.58-3.12H17c-1.38,0-2.58,1.86-2.58,3.12v2.34a2.157,2.157,0,0,0,.12.66Zm11.46-8.76h0a5.84,5.84,0,0,0-1.44-.24h-.06a13.844,13.844,0,0,0-1.74.18c-.06,0-.06,0-.06-.06s0-.06.06-.06,1.2-.18,1.86-.18a7.441,7.441,0,0,1,1.5.24c.06,0,.06.06.06.12C27.2,26.02,27.2,26.08,27.14,26.08Zm-.18.48h0a6.743,6.743,0,0,0-1.56-.24c-.54,0-1.8.12-1.86.12s-.06,0-.06-.06,0-.06.06-.06,1.32-.12,1.86-.12a6.091,6.091,0,0,1,1.56.24c.06,0,.06.06.06.12C27.02,26.5,27.02,26.56,26.96,26.56Zm-19.2-.48c-.06,0-.06,0-.06-.06s0-.06.06-.12a10.5,10.5,0,0,1,1.98-.3c.48,0,2.1.12,2.16.12a.06.06,0,0,1,0,.12s-1.62-.12-2.1-.12c-.66.12-1.56.24-2.04.36Zm.24.9a.059.059,0,0,1-.06-.06V26.8a6.267,6.267,0,0,1,1.74-.6,15.042,15.042,0,0,1,2.52.06.06.06,0,1,1,0,.12h0a13.738,13.738,0,0,0-2.46-.06A6.669,6.669,0,0,0,8,26.98Z" transform="translate(-1.48 -8.64)" fill="#455a64"/>
    <path id="Path_49" data-name="Path 49" d="M14.2,20.1c0-2.64,2.76-5.1,6.18-5.1s6.18,2.4,6.18,5.1-1.98,4.5-6.18,4.5S14.2,22.74,14.2,20.1Z" transform="translate(-4.08 -4.4)" fill="#455a64"/>
    <path id="Path_50" data-name="Path 50" d="M21.864,15.38A3.777,3.777,0,0,1,24.744,14c.72.72.24,2.88,0,3.48Zm-4.92,0A3.777,3.777,0,0,0,14.064,14c-.72.72-.24,2.88,0,3.48Zm-.18,11.76h-1.68a1.8,1.8,0,0,1-1.68-.9,4.646,4.646,0,0,0-1.56-1.98c-.18-.12-.06-.24.24-.24a1.844,1.844,0,0,1,1.26.66c.42.54.9,1.2,1.68,1.2a2.727,2.727,0,0,0,2.1-.54Z" transform="translate(-3.104 -4)" fill="#455a64"/>
    <path id="Path_51" data-name="Path 51" d="M16,4A12,12,0,1,0,28,16,12.035,12.035,0,0,0,16,4Zm0,21.6A9.6,9.6,0,1,1,25.6,16,9.628,9.628,0,0,1,16,25.6Z" fill="#00bcd4"/>
  </g>
</svg>
