<svg xmlns="http://www.w3.org/2000/svg" width="27.315" height="24" viewBox="0 0 27.315 24">
  <path id="heart_1_" data-name="heart (1)" d="M19.91,1.917a7.281,7.281,0,0,0-6.257,3.754A7.281,7.281,0,0,0,7.4,1.917,7.736,7.736,0,0,0,0,9.937C0,15.11,5.445,20.76,10.012,24.59a5.659,5.659,0,0,0,7.281,0C21.86,20.76,27.3,15.11,27.3,9.937a7.736,7.736,0,0,0-7.395-8.02ZM15.831,22.85a3.382,3.382,0,0,1-4.357,0c-5.845-4.9-9.2-9.61-9.2-12.912A5.461,5.461,0,0,1,7.4,4.192a5.461,5.461,0,0,1,5.119,5.745,1.138,1.138,0,1,0,2.275,0A5.461,5.461,0,0,1,19.91,4.192a5.461,5.461,0,0,1,5.119,5.745c0,3.3-3.353,8.008-9.2,12.908Z" transform="translate(0.005 -1.917)"/>
</svg>
