<svg xmlns="http://www.w3.org/2000/svg" width="24" height="24.005" viewBox="0 0 24 24.005">
  <path id="house-chimney_1_" data-name="house-chimney (1)" d="M22,5.724V2a1,1,0,0,0-2,0V4.366L14.8.855A4.981,4.981,0,0,0,9.2.855l-7,4.724A5,5,0,0,0,0,9.724V19a5.006,5.006,0,0,0,5,5H8a1,1,0,0,0,1-1V15a1,1,0,0,1,1-1h4a1,1,0,0,1,1,1v8a1,1,0,0,0,1,1h3a5.006,5.006,0,0,0,5-5V9.724A5,5,0,0,0,22,5.724ZM22,19a3,3,0,0,1-3,3H17V15a3,3,0,0,0-3-3H10a3,3,0,0,0-3,3v7H5a3,3,0,0,1-3-3V9.724A3,3,0,0,1,3.322,7.237l7-4.724a2.985,2.985,0,0,1,3.355,0l7,4.724A3,3,0,0,1,22,9.724V19Z" transform="translate(0 0.005)" fill="#858585"/>
</svg>
