<svg xmlns="http://www.w3.org/2000/svg" width="24" height="24" viewBox="0 0 24 24">
  <g id="icons8-instagram" transform="translate(-6 -6)">
    <path id="Path_30" data-name="Path 30" d="M31.862,10.488a5.045,5.045,0,0,0-.821.462.187.187,0,0,0-.081.174v.618l-.2.606-.2.6-.224.66-.461,1.35-.448,1.332-.339,1c0,.156-.007.312-.02.462a5.364,5.364,0,0,1-.4,1.644,5.194,5.194,0,0,1-.475.912,3.8,3.8,0,0,1-.231.336A5.831,5.831,0,0,1,27,21.678a5.67,5.67,0,0,1-.916.666h-.007a.878.878,0,0,1-.183.108,5.121,5.121,0,0,1-.665.33,4.514,4.514,0,0,1-.475.186.808.808,0,0,1-.109.042,4.9,4.9,0,0,1-1.283.324c-.027.006-.048.006-.075.012-.271.042-.536.078-.808.1-.122.012-.251.018-.373.018l-.482-.024L19.3,23.328c0-.006-.007,0-.007,0l-1.167-.054c-.088,0-.183,0-.271-.006a7.04,7.04,0,0,1-1.072-.114h-.007a7.572,7.572,0,0,1-1.839-.558,7.326,7.326,0,0,1-.923-.492c-.122-.078-.238-.162-.353-.252a8.541,8.541,0,0,1-.889-.762c-.041-.036-.075-.072-.109-.108s-.081-.078-.115-.114a5.115,5.115,0,0,1-.651-.894,4.24,4.24,0,0,1-.394-.894,2.886,2.886,0,0,1-.1-.342.043.043,0,0,1-.014-.03,5.677,5.677,0,0,1-.163-.762,2.956,2.956,0,0,1-.061-.6,1.424,1.424,0,0,1-.014-.24l1.3-1.77,1.269-1.728.577-.786.523-.708.176-.246V11.25A2.842,2.842,0,0,0,15,10.836a3.422,3.422,0,0,0-.258-1.218,6.65,6.65,0,0,0-.577-1.164c-.258-.414-.529-.786-.753-1.122-.333-.492-.563-.894-.5-1.176A7.5,7.5,0,0,1,14.441,6H25.3a6.861,6.861,0,0,1,6.291,3.756A4.58,4.58,0,0,1,31.862,10.488Z" transform="translate(-2.06)" fill="#304ffe"/>
    <path id="Path_31" data-name="Path 31" d="M30.448,12v.162l-.923.48-.589.306-.649.336-1.3.678-1.271.66-1.3.672-.515.27a1.492,1.492,0,0,1-.227.792,2.584,2.584,0,0,1-1,.882,6.419,6.419,0,0,1-1.612.588s0-.006-.007,0c-2.381.552-5.631.3-7.21-.756A2.094,2.094,0,0,1,12.972,16a1.582,1.582,0,0,1-.06-.438V11.25c.007-.09-.06-.18-.181-.27a8.29,8.29,0,0,0-2.16-.75c-.742-.186-1.538-.372-2.207-.552A7.179,7.179,0,0,1,7.12,9.252a6.322,6.322,0,0,1,.408-.618,6.774,6.774,0,0,1,4.026-2.478A7.292,7.292,0,0,1,13.059,6h7.223A23.9,23.9,0,0,1,29.96,9.756a4.623,4.623,0,0,1,.268.732,5.016,5.016,0,0,1,.214,1.23C30.448,11.808,30.448,11.9,30.448,12Z" transform="translate(-0.448)" fill="#4928f4"/>
    <path id="Path_32" data-name="Path 32" d="M30.068,13.3v3l-.147.462-.5,1.584-.52,1.631-.273.87-.253.809-.247.768-.24.761-.127.4-.167.53c0,.517-.013.972-.047,1.359a.763.763,0,0,0-.013.122,4.514,4.514,0,0,1-.18.924.582.582,0,0,1-.033.116,1.685,1.685,0,0,1-.82,1.006,1.907,1.907,0,0,1-.313.136,5.232,5.232,0,0,1-1.347.218c-.4.027-.86.034-1.381.034H23l-.794-.034-.14-.007-1.447-.061-1.467-.061-4.836-.2L13.06,27.6h-.173a10.763,10.763,0,0,1-1.354-.1,3.188,3.188,0,0,1-1.321-.462,2.174,2.174,0,0,1-.9-1.38,3.328,3.328,0,0,1-.093-.476,10.924,10.924,0,0,1-.12-1.359c0-.1,0-.2-.007-.313-.007-.007,0-.007,0-.007v-.394c-.007-.2-.007-.4-.007-.612l.033-1.094.02-.782.027-.911v-.129l.047-1.672.047-1.672.047-1.57.04-1.543.013-.408c0-.211-.7-.333-1.481-.435-.62-.082-1.3-.156-1.707-.251.033-.156.067-.313.107-.462A6.363,6.363,0,0,1,6.8,10.184a7.316,7.316,0,0,1,.407-.7,21.933,21.933,0,0,1,4.509-1.475,20.591,20.591,0,0,1,4.289-.449,20.87,20.87,0,0,1,13.033,4.547c.347.272.687.564,1.02.87C30.068,13.079,30.068,13.188,30.068,13.3Z" transform="translate(-0.068 -0.624)" fill="#6200ea"/>
    <path id="Path_33" data-name="Path 33" d="M30,15.629v3.119l-.367.728-.7,1.409-.373.742-.34.68-.147.3c0,.213,0,.419-.013.618,0,.3-.013.577-.033.838-.027.309-.067.591-.107.852a5,5,0,0,1-.44,1.395c-.027.048-.053.1-.08.137a2.574,2.574,0,0,1-.253.35,2.022,2.022,0,0,1-.407.392,2.816,2.816,0,0,1-.8.433,5.347,5.347,0,0,1-1.34.3,11.139,11.139,0,0,1-1.12.055l-.28.014-1.387.082h-.007l-1.473.089-1.5.089-2.067.124-2.513.151-.367.021a7.232,7.232,0,0,1-.967-.062.438.438,0,0,0-.093-.014,4.869,4.869,0,0,1-1.24-.371,4.053,4.053,0,0,1-1.18-.811,4.478,4.478,0,0,1-.753-1.01C9.607,26.183,9.56,26.1,9.52,26a6.546,6.546,0,0,1-.48-1.354c-.02-.082-.04-.172-.053-.261a3.809,3.809,0,0,1-.093-.495A11.354,11.354,0,0,1,8.76,22.5v-.007c-.007-.2-.013-.392-.013-.6l-.327-.8-.047-.124-.04-.1-.5-1.23-.08-.2-.48-1.189L6.74,16.921H6.733l-.54-1.34L6,15.093V14a7.264,7.264,0,0,1,.113-1.271c.033-.158.067-.316.107-.467a18.056,18.056,0,0,1,1.767-.921A18.86,18.86,0,0,1,12.4,9.94,19.333,19.333,0,0,1,28.693,14.4c.133.11.26.22.387.337C29.393,15.018,29.7,15.313,30,15.629Z" transform="translate(0 -1.444)" fill="#673ab7"/>
    <path id="Path_34" data-name="Path 34" d="M30,17.478v3.084l-.38.714-.72,1.35-.007.018c0,.258-.013.492-.033.7a2.024,2.024,0,0,1-.56,1.4,1.576,1.576,0,0,1-.833.378c-.02.006-.047.006-.067.012a2.035,2.035,0,0,1-.34.03,10.169,10.169,0,0,1-1.46-.024c-.06,0-.127-.006-.193-.012-.407-.024-.84-.048-1.32-.066-.26-.006-.533-.012-.813-.012H23.26l-.673.048H22.58l-1.513.1-1.727.12-.253.018-2.02.132-1.047.072-1.033.066c-.18,0-.353,0-.527-.006,0,0-.007-.006-.007,0a13.549,13.549,0,0,1-2.027-.156,5.158,5.158,0,0,1-1.453-.414,2.909,2.909,0,0,1-1.067-.786A3.123,3.123,0,0,1,9.307,23v-.006a6.212,6.212,0,0,1-.147-1.4l-.1-.162-.593-.954-.087-.132-.047-.084-.62-.99-.307-.5-.387-.618-.667-1.074L6,16.518V14.31a16.932,16.932,0,0,1,1.82-.93,17.43,17.43,0,0,1,2.367-.882,19.891,19.891,0,0,1,2.78-.612,20.2,20.2,0,0,1,2.98-.216,19.722,19.722,0,0,1,11.9,3.882c.147.1.287.216.427.324a16.324,16.324,0,0,1,1.58,1.446A1.573,1.573,0,0,1,30,17.478Z" transform="translate(0 -1.203)" fill="#8e24aa"/>
    <path id="Path_35" data-name="Path 35" d="M30,20.314v4.338a6.856,6.856,0,0,0-.653-.294c-.147-.066-.313-.132-.487-.192-.253-.1-.527-.2-.833-.294a2.027,2.027,0,0,0-.207-.06c-.12-.042-.247-.078-.373-.114-.393-.108-.827-.21-1.28-.3-.173-.03-.353-.06-.533-.084a12.848,12.848,0,0,0-1.847-.15,1.547,1.547,0,0,0-.167-.006l-1.713.012-2.333.012h-.007l-4.993.036a11.207,11.207,0,0,0-3.147.48s-.007,0-.007.006c-.62.144-.813.054-.867-.924q-.02-.405-.02-1.044l-.373-.258-.653-.444-.4-.276-.08-.054L7.92,19.948l-.167-.114-.347-.24-.64-.432L6,18.634v-2.04a1.767,1.767,0,0,1,.193-.126,17.829,17.829,0,0,1,3.093-1.524,18.951,18.951,0,0,1,3.053-.876c.287-.054.58-.108.88-.144a17.75,17.75,0,0,1,2.727-.2,18.283,18.283,0,0,1,10.607,3.33,15,15,0,0,1,1.267,1,16.244,16.244,0,0,1,1.533,1.494c.093.108.187.216.28.33C29.76,20.014,29.88,20.164,30,20.314Z" transform="translate(0 -2.046)" fill="#c2185b"/>
    <path id="Path_36" data-name="Path 36" d="M30,23.544v1.968a5.449,5.449,0,0,1-.12,1.146,5.571,5.571,0,0,1-.607,1.572,1.535,1.535,0,0,1-.5.006,5.535,5.535,0,0,1-1.447-.522.26.26,0,0,1-.073-.03c-.167-.078-.34-.162-.513-.258-.353-.174-.727-.366-1.1-.546-.08-.036-.16-.072-.233-.108a10.848,10.848,0,0,0-1.307-.516h-.007c-.093-.03-.193-.06-.293-.084a4.7,4.7,0,0,0-1.14-.156l-.733-.192-3.247-.846h-.007l-1.993-.522h-.007l-.867-.228c-2.507,0-4.047.96-4.793.594-.293-.138-.467-.486-.527-1.17a6.466,6.466,0,0,1-.027-.66l-.78-.342-.033-.012H9.64l-.56-.252-.613-.264L8.42,22.1l-.113-.054L7,21.48l-1-.438V18.984c.113-.09.233-.174.353-.258s.253-.174.38-.264H6.74a16.534,16.534,0,0,1,5.78-2.34c.167-.036.34-.072.513-.1a17.262,17.262,0,0,1,2.913-.246,16.843,16.843,0,0,1,9.34,2.754A15.906,15.906,0,0,1,27.38,20.2a14.389,14.389,0,0,1,1.453,1.6c.033.042.067.084.1.12.247.324.473.654.687,1C29.76,23.124,29.88,23.334,30,23.544Z" transform="translate(0 -2.369)" fill="#d81b60"/>
    <path id="Path_37" data-name="Path 37" d="M29.892,27.478a5.569,5.569,0,0,1-.607,1.572,6.024,6.024,0,0,1-.42.636c-.093.126-.193.246-.293.36-.24-.084-.594-.2-1.027-.336V29.7c-.327-.1-.7-.21-1.1-.312-.113-.03-.227-.06-.347-.09a13.34,13.34,0,0,0-1.447-.276,7.93,7.93,0,0,0-1.161-.1l-.307-.078h-.007l-1.614-.42-.994-.258-1.107-.288h-.007l-.36-.09-4.356-1.128-1.254-.324-.934-.2-1.521-.324-.187-.042h-.007l-1.527-.318v-.006L9.035,25.4l-.14-.03-1.114-.234-.127-.03-.947-.7L6,23.872V21.424c.247-.216.5-.42.767-.618.08-.066.167-.126.253-.186s.167-.12.253-.18a13.756,13.756,0,0,1,1.928-1.1,14.106,14.106,0,0,1,2.755-1c.187-.054.374-.1.567-.138A15.892,15.892,0,0,1,24,20.026a13.893,13.893,0,0,1,3.035,2.46,12.093,12.093,0,0,1,1.194,1.5,1.352,1.352,0,0,1,.087.12c.213.318.414.648.594.984a9.765,9.765,0,0,1,.447.912A11.6,11.6,0,0,1,29.892,27.478Z" transform="translate(0 -2.332)" fill="#f50057"/>
    <path id="Path_38" data-name="Path 38" d="M28.968,30.51c-.094.126-.194.246-.295.36a6.25,6.25,0,0,1-.978.894,6.966,6.966,0,0,1-1.005.624,3.863,3.863,0,0,1-.409-.114,7.283,7.283,0,0,1-1.333-.606,16.057,16.057,0,0,1-1.447-.942l-.141-.108-1.139-.09-.141-.012L20.606,30.4l-1.528-.12-2.258-.18-3.578-.282-.013-.006-1.26-.546L10.7,28.716l-1.025-.444-.221-.1-.275-.12-.951-.414L6.958,27.1l-.4-.174L6,26.766V24.084a13.027,13.027,0,0,1,1.005-.96c.228-.192.469-.384.717-.564a1.463,1.463,0,0,1,.121-.084.253.253,0,0,1,.087-.06,11.263,11.263,0,0,1,1.24-.78,11.72,11.72,0,0,1,1.561-.744,12.956,12.956,0,0,1,1.822-.582,14.34,14.34,0,0,1,10.787,1.6,12.411,12.411,0,0,1,3.4,3.042,11.044,11.044,0,0,1,.817,1.212c.087.156.174.312.248.468s.154.3.228.45c.141.312.268.624.382.948a10.2,10.2,0,0,1,.476,1.848Q28.938,30.195,28.968,30.51Z" transform="translate(0 -3.156)" fill="#ff1744"/>
    <path id="Path_39" data-name="Path 39" d="M27.834,32.428a1.256,1.256,0,0,1-.007.156,7.016,7.016,0,0,1-1.011.624c-.148.072-.3.144-.452.2s-.31.126-.472.18c-.229-.108-.539-.24-.87-.366a6.4,6.4,0,0,0-1.362-.408,1.392,1.392,0,0,0-.263-.024l-1.106-.126h-.013L20.9,32.506l-1.389-.162-.647-.072-5.1-.588a9.129,9.129,0,0,1-1.045-.06c-.445-.036-.91-.1-1.375-.18s-.924-.168-1.368-.27c-.465-.1-.924-.21-1.348-.318-.492-.132-.95-.258-1.335-.372-.317-.09-.586-.174-.8-.24a4.857,4.857,0,0,1-.3-.8A5.046,5.046,0,0,1,6,27.976v-1a8.754,8.754,0,0,1,.715-.924,10.58,10.58,0,0,1,1.618-1.536A.266.266,0,0,1,8.4,24.46l.007-.006a6.839,6.839,0,0,1,.654-.462.7.7,0,0,1,.081-.06c.108-.072.222-.144.344-.21a12.3,12.3,0,0,1,3.168-1.344,13.168,13.168,0,0,1,3.4-.438,12.8,12.8,0,0,1,6.384,1.674A11.127,11.127,0,0,1,25.852,26.6c.108.138.209.276.31.42a10.455,10.455,0,0,1,1.132,2.25c.034.09.061.18.088.276.054.162.1.33.142.5.013.042.027.084.04.132a9.5,9.5,0,0,1,.209,1.17v.006A9.481,9.481,0,0,1,27.834,32.428Z" transform="translate(0 -3.976)" fill="#ff5722"/>
    <path id="Path_40" data-name="Path 40" d="M24.322,33.252a6.45,6.45,0,0,1-.036.666c-.012.108-.024.216-.036.318-.138.066-.276.126-.42.18a5.7,5.7,0,0,1-.828.246,4.8,4.8,0,0,1-.588.1h-.006c-.186-.114-.4-.252-.624-.408-.4-.282-.822-.6-1.158-.858l-.012-.012c-.354-.27-.606-.474-.606-.474l-.636.024-1.224.042-.57.024-2.292.084-1.938.072c-.126.006-.276.006-.462,0H12.88c-.252-.006-.552-.024-.882-.054-.384-.03-.8-.066-1.23-.108s-.834-.1-1.236-.144c-.444-.048-.864-.1-1.224-.15-.282-.036-.528-.066-.726-.09A5.76,5.76,0,0,1,7.12,32.1a5.471,5.471,0,0,1-.546-1.032,5.252,5.252,0,0,1-.264-.8,8.646,8.646,0,0,1,.672-1.524,8.783,8.783,0,0,1,.744-1.134,8.122,8.122,0,0,1,.882-.984v-.006q.135-.135.27-.252c.168-.156.342-.3.522-.438h.006c.006-.012.012-.012.018-.018.144-.114.294-.216.444-.318a9.089,9.089,0,0,1,2.97-1.32A9.446,9.446,0,0,1,15.076,24a9.123,9.123,0,0,1,4.23,1.026h.006a9.115,9.115,0,0,1,2.82,2.25,8.491,8.491,0,0,1,1.092,1.6,8.879,8.879,0,0,1,.54,1.194c.012.036.024.066.036.1.1.3.192.612.27.924.054.222.1.45.132.678.012.072.024.138.03.21A8.879,8.879,0,0,1,24.322,33.252Z" transform="translate(-0.124 -4.8)" fill="#ff6f00"/>
    <path id="Path_41" data-name="Path 41" d="M23.632,34.076v.06c0,.2-.018.462-.036.738-.018.2-.036.414-.054.612a4.8,4.8,0,0,1-.588.1h-.006a5.169,5.169,0,0,1-.684.042h-1.05l-.228-.066L19.8,35.2l-1.2-.36L15.826,34l-1.2-.36s-.5.2-1.2.432H13.42c-.27.09-.564.186-.876.282-.39.114-.8.228-1.212.318a8.681,8.681,0,0,1-1.206.2,3.213,3.213,0,0,1-.33.018,6.1,6.1,0,0,1-.954-.654,6.169,6.169,0,0,1-.72-.708,5.761,5.761,0,0,1-.462-.606,6.856,6.856,0,0,1,.162-.792,7.568,7.568,0,0,1,.834-2.022,7.232,7.232,0,0,1,.7-1.014.107.107,0,0,1,.042-.048c-.006-.006,0-.006,0-.006.078-.1.162-.2.246-.288v-.006a9.135,9.135,0,0,1,.774-.75c.1-.078.186-.156.288-.234a.525.525,0,0,1,.06-.048,7.986,7.986,0,0,1,11.922,2.568,1.943,1.943,0,0,1,.1.192c.054.108.108.222.156.342a7.085,7.085,0,0,1,.462,1.356l.036.144c.048.222.09.45.12.678A8.029,8.029,0,0,1,23.632,34.076Z" transform="translate(-0.664 -5.624)" fill="#ff9800"/>
    <path id="Path_42" data-name="Path 42" d="M23.176,34.9c0,.12-.006.252-.012.39-.012.222-.03.462-.06.708-.012.15-.036.3-.06.45H19.756l-.636-.1-2.484-.4-.354-.054-.81-.132a16.07,16.07,0,0,0-1.932.306c-.426.078-.858.162-1.248.216l-.138.018h-.006a5.651,5.651,0,0,1-1.212-.408q-.18-.081-.36-.18a6.1,6.1,0,0,1-.954-.654c-.006-.072-.012-.132-.012-.162,0-.156.006-.306.018-.456a6.758,6.758,0,0,1,.162-1.116,6.673,6.673,0,0,1,.582-1.56,2.892,2.892,0,0,1,.162-.3c.024-.048.054-.09.078-.138.108-.174.228-.342.348-.51a7.631,7.631,0,0,1,.834-.924H11.8a.719.719,0,0,1,.072-.066.9.9,0,0,1,.084-.072,4.132,4.132,0,0,1,.366-.294.006.006,0,0,1,.006-.006,6.826,6.826,0,0,1,7.326-.516h.006a6.791,6.791,0,0,1,2.118,1.818,6.117,6.117,0,0,1,.588.918h.006l.09.18a6.079,6.079,0,0,1,.432,1.11H22.9c.006.03.018.06.024.09a6.882,6.882,0,0,1,.174.792c.006.054.012.114.018.168A6.107,6.107,0,0,1,23.176,34.9Z" transform="translate(-1.444 -6.444)" fill="#ffc107"/>
    <path id="Path_43" data-name="Path 43" d="M22.77,35.654a2.409,2.409,0,0,1-.012.294v.012A5.853,5.853,0,0,1,22.59,37.2a.137.137,0,0,1-.018.066h-2.8l-2.31-.5-.306-.066-.048.012-2.562.528-.114.024h-.162a5.846,5.846,0,0,1-1.128-.108l-.162-.036h-.006a5.651,5.651,0,0,1-1.212-.408c-.012-.066-.024-.132-.03-.2a5,5,0,0,1-.06-.8c0-.1,0-.2.006-.306a5.47,5.47,0,0,1,.138-.948,4.661,4.661,0,0,1,.192-.66,5.393,5.393,0,0,1,.228-.54c.072-.15.156-.294.24-.438s.174-.27.27-.4a5.417,5.417,0,0,1,.834-.906,5.269,5.269,0,0,1,.582-.438,5.547,5.547,0,0,1,3.06-.912,4.582,4.582,0,0,1,.648.042h.012a5.445,5.445,0,0,1,1.794.522h.006a5.554,5.554,0,0,1,2.148,1.86,4.908,4.908,0,0,1,.258.42,3.921,3.921,0,0,1,.18.354,6.165,6.165,0,0,1,.228.582H22.5a6.217,6.217,0,0,1,.168.678v.006A5.2,5.2,0,0,1,22.77,35.654Z" transform="translate(-1.49 -7.268)" fill="#ffd54f"/>
    <path id="Path_44" data-name="Path 44" d="M22.354,36.64v.018a4.361,4.361,0,0,1-.126,1.044,2.666,2.666,0,0,1-.126.426H19.414L18.04,37.75l-1.374.378H15.088a5.846,5.846,0,0,1-1.128-.108.213.213,0,0,1-.024-.054,4.254,4.254,0,0,1-.216-1.326,1.377,1.377,0,0,1,.012-.222,3.4,3.4,0,0,1,.12-.822,2.632,2.632,0,0,1,.162-.522,1.2,1.2,0,0,1,.1-.24,4.718,4.718,0,0,1,.318-.594,4.2,4.2,0,0,1,.438-.54,3.336,3.336,0,0,1,.654-.576,4.011,4.011,0,0,1,1.422-.66,4.1,4.1,0,0,1,1.092-.144,4.312,4.312,0,0,1,3.054,1.254.873.873,0,0,1,.1.108H21.2c.084.09.162.18.24.282a4.1,4.1,0,0,1,.552.924,3.361,3.361,0,0,1,.18.486c.006.024.012.042.018.066a3.863,3.863,0,0,1,.15.918A2.156,2.156,0,0,1,22.354,36.64Z" transform="translate(-2.231 -8.128)" fill="#ffe082"/>
    <path id="Path_45" data-name="Path 45" d="M21.948,37.464a2.45,2.45,0,0,1-.1.7,3.047,3.047,0,0,1-.264.684c-.018.036-.06.1-.06.1H16.2a.045.045,0,0,1-.012-.024,1.964,1.964,0,0,1-.18-.354,2.754,2.754,0,0,1-.216-.888,1.377,1.377,0,0,1-.012-.222.726.726,0,0,1,.006-.114,2.762,2.762,0,0,1,.114-.75,2.966,2.966,0,0,1,.24-.606.021.021,0,0,0,.006-.012,3.558,3.558,0,0,1,.24-.372,3,3,0,0,1,1.134-.93h.006a2.408,2.408,0,0,1,.45-.174h.006a3.043,3.043,0,0,1,.882-.126,2.938,2.938,0,0,1,1.008.168,1.722,1.722,0,0,1,.33.132h.006a3,3,0,0,1,1.254,1.11,2.23,2.23,0,0,1,.162.288,1.353,1.353,0,0,1,.066.132,2.994,2.994,0,0,1,.246,1.014.485.485,0,0,1,.006.1A1.156,1.156,0,0,1,21.948,37.464Z" transform="translate(-2.999 -8.952)" fill="#ffecb3"/>
    <g id="Group_1" data-name="Group 1" transform="translate(9 9)">
      <path id="Path_46" data-name="Path 46" d="M24.154,11H15.846A4.816,4.816,0,0,0,11,15.846v8.308A4.816,4.816,0,0,0,15.846,29h8.308A4.816,4.816,0,0,0,29,24.154V15.846A4.816,4.816,0,0,0,24.154,11Z" transform="translate(-11 -11)" fill="none" stroke="#fff" stroke-linecap="round" stroke-linejoin="round" stroke-miterlimit="10" stroke-width="2"/>
      <circle id="Ellipse_49" data-name="Ellipse 49" cx="0.6" cy="0.6" r="0.6" transform="translate(13.3 2.8)" fill="#fff"/>
    </g>
    <g id="Group_2" data-name="Group 2" transform="translate(14.4 14.4)">
      <circle id="Ellipse_50" data-name="Ellipse 50" cx="3.6" cy="3.6" r="3.6" fill="none" stroke="#fff" stroke-linecap="round" stroke-linejoin="round" stroke-miterlimit="10" stroke-width="2"/>
    </g>
  </g>
</svg>
