<svg xmlns="http://www.w3.org/2000/svg" width="20" height="24.011" viewBox="0 0 20 24.011">
  <path id="shield-keyhole" d="M19.259,2.412,12,0,4.741,2.412A3.993,3.993,0,0,0,2,6.209v5.755c0,6.567,7.006,10.577,9.15,11.648l.806.4.838-.336C14.953,22.81,22,19.395,22,11.963V6.208a4,4,0,0,0-2.741-3.8ZM20,11.964c0,6.178-6.086,9.109-7.952,9.861h0C10.16,20.881,4,17.384,4,11.964V6.209a2,2,0,0,1,1.37-1.9L12,2.113l6.63,2.2A2,2,0,0,1,20,6.209v5.755ZM14.5,9.5A2.5,2.5,0,0,1,13,11.791V16H11V11.791A2.5,2.5,0,1,1,14.5,9.5Z" transform="translate(-2 -0.005)" fill="#39393a"/>
</svg>
