<svg xmlns="http://www.w3.org/2000/svg" width="20" height="19.999" viewBox="0 0 20 19.999">
  <path id="lead-management" d="M16.249,11.666a2.083,2.083,0,1,1-2.083,2.083A2.083,2.083,0,0,1,16.249,11.666ZM7.916,13.749A2.083,2.083,0,1,0,10,11.666,2.083,2.083,0,0,0,7.916,13.749ZM3.75,11.666a2.083,2.083,0,1,0,2.083,2.083A2.083,2.083,0,0,0,3.75,11.666Zm12.5,5A4.193,4.193,0,0,0,13.28,17.86,4.958,4.958,0,0,0,10,16.665,4.958,4.958,0,0,0,6.719,17.86,4.193,4.193,0,0,0,3.75,16.665,4.088,4.088,0,0,0,.1,18.774a.834.834,0,0,0,1.473.782,2.455,2.455,0,0,1,2.18-1.224,2.455,2.455,0,0,1,2.18,1.224A.848.848,0,0,0,6.667,20a.742.742,0,0,0,.689-.367A3.188,3.188,0,0,1,10,18.332a3.189,3.189,0,0,1,2.643,1.3.8.8,0,0,0,.691.367.91.91,0,0,0,.736-.442,2.553,2.553,0,0,1,4.36,0,.834.834,0,0,0,1.473-.782A4.087,4.087,0,0,0,16.249,16.665ZM5.612,6.982l.819-.472a3.689,3.689,0,0,1-.182-1.094,3.689,3.689,0,0,1,.182-1.094l-.819-.472a.833.833,0,1,1,.832-1.443l.814.469A3.739,3.739,0,0,1,9.165,1.767V.833a.833.833,0,1,1,1.667,0v.934a3.73,3.73,0,0,1,1.907,1.109l.814-.469a.833.833,0,1,1,.832,1.443l-.819.472a3.689,3.689,0,0,1,.182,1.094,3.689,3.689,0,0,1-.182,1.094l.819.472a.833.833,0,1,1-.832,1.443l-.814-.469a3.739,3.739,0,0,1-1.907,1.109V10a.833.833,0,0,1-1.667,0V9.065A3.73,3.73,0,0,1,7.258,7.956l-.814.469a.833.833,0,0,1-.832-1.443Zm2.3-1.566A2.083,2.083,0,1,0,10,3.333,2.085,2.085,0,0,0,7.916,5.416ZM.833,11.666a.833.833,0,0,0,.833-.833v-2.5A1.668,1.668,0,0,1,3.333,6.666.833.833,0,1,0,3.333,5,3.336,3.336,0,0,0,0,8.333v2.5A.833.833,0,0,0,.833,11.666ZM16.665,5a.833.833,0,0,0,0,1.667,1.668,1.668,0,0,1,1.667,1.667v2.5a.833.833,0,0,0,1.667,0v-2.5A3.336,3.336,0,0,0,16.665,5Z" transform="translate(0.001)" fill="#858585"/>
</svg>
