<svg xmlns="http://www.w3.org/2000/svg" width="24" height="24" viewBox="0 0 24 24">
  <g id="icons8-linkedin" transform="translate(-6 -6)">
    <path id="Path_26" data-name="Path 26" d="M30,26.667A3.333,3.333,0,0,1,26.667,30H9.333A3.333,3.333,0,0,1,6,26.667V9.333A3.333,3.333,0,0,1,9.333,6H26.667A3.333,3.333,0,0,1,30,9.333Z" transform="translate(0 0)" fill="#0288d1"/>
    <path id="Path_27" data-name="Path 27" d="M12,16.9h3.5V28.8H12Zm1.74-1.4h-.02A1.675,1.675,0,0,1,12,13.749,1.684,1.684,0,0,1,13.76,12a1.678,1.678,0,0,1,1.74,1.749A1.685,1.685,0,0,1,13.74,15.5ZM28.8,28.8H25.3V22.431c0-1.539-.857-2.589-2.234-2.589a2.007,2.007,0,0,0-1.895,1.393A5.049,5.049,0,0,0,21.1,22.5v6.3H17.6V16.9h3.5v1.831A3.54,3.54,0,0,1,24.417,16.9c2.5,0,4.383,1.575,4.383,5.092V28.8Z" transform="translate(-2.4 -2.4)" fill="#fff"/>
  </g>
</svg>
