<svg xmlns="http://www.w3.org/2000/svg" width="18" height="18.004" viewBox="0 0 18 18.004">
  <g id="link" transform="translate(-0.001)">
    <path id="Path_52" data-name="Path 52" d="M10.385,15.063,7.938,17.51A3.771,3.771,0,1,1,2.6,12.177L5.051,9.728A.75.75,0,0,0,3.99,8.668L1.544,11.117A5.272,5.272,0,0,0,9,18.57l2.447-2.447a.75.75,0,1,0-1.061-1.061Z" transform="translate(0 -2.111)" fill="#858585"/>
    <path id="Path_53" data-name="Path 53" d="M18.571,1.546A5.235,5.235,0,0,0,14.844,0h0a5.238,5.238,0,0,0-3.726,1.543L8.667,3.99A.75.75,0,1,0,9.727,5.052l2.449-2.447a3.745,3.745,0,0,1,2.666-1.1h0a3.771,3.771,0,0,1,2.666,6.438l-2.447,2.447a.751.751,0,0,0,1.061,1.061L18.569,9a5.278,5.278,0,0,0,0-7.455Z" transform="translate(-2.111)" fill="#858585"/>
    <path id="Path_54" data-name="Path 54" d="M12.72,8.22l-4.5,4.5A.75.75,0,1,0,9.28,13.781l4.5-4.5A.75.75,0,1,0,12.72,8.22Z" transform="translate(-1.999 -1.999)" fill="#858585"/>
  </g>
</svg>
