<svg xmlns="http://www.w3.org/2000/svg" xmlns:xlink="http://www.w3.org/1999/xlink" width="117.857" height="55.077" viewBox="0 0 117.857 55.077">
  <defs>
    <radialGradient id="radial-gradient" cx="0.257" cy="0.5" r="0.816" gradientTransform="translate(0 -0.132) scale(1 1.263)" gradientUnits="objectBoundingBox">
      <stop offset="0" stop-color="#5af5c6"/>
      <stop offset="1" stop-color="#007571"/>
      <stop offset="1" stop-color="#61ffcd"/>
    </radialGradient>
  </defs>
  <path id="Intersection_20" data-name="Intersection 20" d="M782.058-1656.8c-.164-.618-.29-.707-1.1-.833a26.431,26.431,0,0,1-7.917-3.177,3.694,3.694,0,0,0-.782-.428,2.274,2.274,0,0,0-.63.315,4.412,4.412,0,0,1-5.472-.694,4.082,4.082,0,0,1-1.387-3.177,3.229,3.229,0,0,1,.454-1.878l.455-.921-.467-.693a29.4,29.4,0,0,1-2.319-4.488,35.377,35.377,0,0,1-1.273-4.236c-.05-.253-.252-.417-.757-.669a5.117,5.117,0,0,1-2.156-2.256,4.507,4.507,0,0,1,.706-4.8,4.751,4.751,0,0,1,1.93-1.211c.2,0,.227-.063.454-1.2a27.624,27.624,0,0,1,3.24-7.59l.555-.9-.341-.68a3.686,3.686,0,0,1-.4-1.765,2.864,2.864,0,0,1,.328-1.9,4.268,4.268,0,0,1,2.131-2.245,3.134,3.134,0,0,1,1.941-.428,3.176,3.176,0,0,1,2.018.479l.92.466.442-.29a27.7,27.7,0,0,1,8.22-3.366c.681-.126.719-.151.858-.656a4.483,4.483,0,0,1,3.076-2.875,4.8,4.8,0,0,1,4.211,1.16,5.091,5.091,0,0,1,1.047,1.9c0,.127.176.215.542.278a27.111,27.111,0,0,1,9.192,3.618l.353.239.971-.479a3.255,3.255,0,0,1,1.992-.479,3.175,3.175,0,0,1,1.841.4,4.831,4.831,0,0,1,2.245,2.181,3.514,3.514,0,0,1,.328,1.892,3.614,3.614,0,0,1-.277,1.79,5.157,5.157,0,0,1-2.169,2.207,3.231,3.231,0,0,1-1.9.353,3.275,3.275,0,0,1-1.916-.353,4.608,4.608,0,0,1-2.106-2.106,3.772,3.772,0,0,1-.34-1.941l-.025-1.248-.921-.568a25.934,25.934,0,0,0-4.463-2.105,26.1,26.1,0,0,0-3.29-.82c-.063,0-.239.24-.365.53a4.711,4.711,0,0,1-2.018,1.979,4.815,4.815,0,0,1-2.975.227l-.592-.176-3.581,3.606c-1.966,1.979-5.03,5.094-6.821,6.9l-3.24,3.3v11.083l4.9,4.8,4.9,4.816H793.8l.554-.617c.29-.34,1.929-2.144,3.631-4.009s4.035-4.425,5.17-5.711,2.194-2.471,2.345-2.648l.29-.315-.277-.718-.278-.732H793.985l-.214.568a5.006,5.006,0,0,1-2.018,2.181,3.123,3.123,0,0,1-1.9.34,3.424,3.424,0,0,1-1.98-.353,4.5,4.5,0,0,1-2.08-2.081,3.276,3.276,0,0,1-.353-1.916,3.527,3.527,0,0,1,.34-1.916,4.853,4.853,0,0,1,2.219-2.219,5.085,5.085,0,0,1,3.581-.063,4.648,4.648,0,0,1,2.13,2.131l.291.68h11.245l.266-.554a4.671,4.671,0,0,1,2.988-2.408,4.014,4.014,0,0,1,3.064.379c.946.466,1.866,1.348,1.74,1.676-.025.089-.013.127.063.089.151-.1.429.479.631,1.311a4.458,4.458,0,0,1-2.421,4.992c-.441.2-.807.378-.833.391a9.11,9.11,0,0,0-.277,1.135,26.318,26.318,0,0,1-3.2,7.854l-.58.9.416.782a3.062,3.062,0,0,1,.4,1.916,3.44,3.44,0,0,1-.34,1.867,4.487,4.487,0,0,1-6.43,2.042,2.3,2.3,0,0,0-.617-.3,3.823,3.823,0,0,0-.858.428,25.709,25.709,0,0,1-7.665,3.064l-1.147.214-.164.542a4.085,4.085,0,0,1-1.6,2.182,4.645,4.645,0,0,1-2.706.885A3.953,3.953,0,0,1,782.058-1656.8Zm-7.514-6.254a22.474,22.474,0,0,0,6.871,2.749c.466.088.542.063.743-.252l.215-.34-1.552-1.551-1.563-1.563h-2.8C773.182-1664.01,773.106-1663.972,774.544-1663.052Zm18.962.328c-.63.643-1.362,1.425-1.639,1.727l-.5.542.441-.088a21.9,21.9,0,0,0,4.135-1.513,13.284,13.284,0,0,0,2.673-1.728,10.6,10.6,0,0,0-1.993-.1h-1.979Zm-7.439-.076a3.592,3.592,0,0,1,2.812.983,4.21,4.21,0,0,0,.554.455,18.3,18.3,0,0,0,1.3-1.324l1.223-1.324h-4.866c-2.875,0-4.867.05-4.867.113a5.071,5.071,0,0,0,.833.869l.819.744.53-.265a2.755,2.755,0,0,1,1.425-.254C785.9-1662.8,785.983-1662.8,786.067-1662.8Zm21.194-15.067c-.013,0-.58.669-1.273,1.463-1.185,1.374-3.606,4.06-7.741,8.6-.971,1.072-1.753,1.967-1.728,1.993a5.076,5.076,0,0,0,1.11-.039l1.059-.076.214-.617a4.074,4.074,0,0,1,2.068-2.282,3.2,3.2,0,0,1,1.929-.416,6.926,6.926,0,0,1,1.349.1c.227.088.328,0,.731-.63a25.369,25.369,0,0,0,3.026-7.363c.077-.429.064-.468-.328-.606a2.963,2.963,0,0,0-.409-.128S807.262-1677.868,807.261-1677.866Zm-36.765,6.972v1.7l.669.3a4.465,4.465,0,0,1,2.407,2.761c.063.2.265.227,1.93.227h1.866l-3.341-3.341c-1.841-1.84-3.38-3.341-3.43-3.341A6.728,6.728,0,0,0,770.5-1670.894Zm-5.888-6.834c-.466.277-.466.214-.013,1.8a25.284,25.284,0,0,0,1.9,4.754c1.009,1.954,1.173,2.156,1.7,2.042l.4-.088v-5.182l-1.79-1.79-1.8-1.79Zm3.051-6.089-.882.858.113.7a4.181,4.181,0,0,1-.366,2.4c-.176.34-.164.353.732,1.261.5.491,1.034,1.021,1.2,1.147l.277.24v-3.732c0-2.068-.038-3.745-.088-3.745A6.742,6.742,0,0,0,767.66-1683.817Zm-.567-9.179a22.778,22.778,0,0,0-2.837,6.884c-.063.328-.038.4.189.48a3.973,3.973,0,0,1,.806.5l.543.416,1.475-1.475,1.463-1.463v-3.114a28.812,28.812,0,0,0-.088-3.164,4.33,4.33,0,0,0-.454-.139.688.688,0,0,0-.153-.022C767.819-1694.09,767.674-1693.891,767.093-1693Zm13.679-9.644a22.276,22.276,0,0,0-6.165,2.585l-1.021.643v1.16a3.49,3.49,0,0,1-.328,1.853,4.334,4.334,0,0,1-2.08,2.081l-.681.3v2.219a6.527,6.527,0,0,0,.126,2.169c.076-.025,2.736-2.736,5.913-6.027l5.787-5.989-.3-.442a1.8,1.8,0,0,1-.3-.592c0-.09.005-.137-.094-.137A6.143,6.143,0,0,0,780.772-1702.641Zm-2.344,5.307c-.164.2-.151.214.05.05a.772.772,0,0,0,.214-.214c0-.032-.011-.048-.029-.048C778.622-1697.545,778.539-1697.472,778.427-1697.333Zm66,32.437v-22.816h4.224l.032,1.023a9.707,9.707,0,0,1,1.136-.608,9.815,9.815,0,0,1,1.488-.545,5.839,5.839,0,0,1,1.569-.223,6.01,6.01,0,0,1,3.471.912,5.244,5.244,0,0,1,1.952,2.752,14.689,14.689,0,0,1,.625,4.656,13.941,13.941,0,0,1-.7,4.863,5.011,5.011,0,0,1-2.255,2.722,8.367,8.367,0,0,1-4.081.864,12.677,12.677,0,0,1-1.728-.129q-.927-.127-1.471-.256v6.784Zm6.272-19.456a9.569,9.569,0,0,0-1.12.32,6.249,6.249,0,0,0-.9.383v8.576q.383.032,1.1.128a10.928,10.928,0,0,0,1.424.1,3.326,3.326,0,0,0,2.016-.544,2.932,2.932,0,0,0,1.039-1.649,10.772,10.772,0,0,0,.3-2.8,6.6,6.6,0,0,0-.72-3.631,2.381,2.381,0,0,0-2.064-1.008A5.015,5.015,0,0,0,850.7-1684.353Zm-22.576,11.792a5.2,5.2,0,0,1-1.264-3.824,5.209,5.209,0,0,1,.64-2.8,3.662,3.662,0,0,1,1.9-1.472,10.67,10.67,0,0,1,3.088-.561l3.9-.352v-.959a1.97,1.97,0,0,0-.576-1.616,2.657,2.657,0,0,0-1.7-.464q-.9,0-2.064.064t-2.3.159q-1.137.1-1.968.192l-.128-3.007q.832-.193,2-.4t2.448-.336q1.28-.128,2.368-.128a9.909,9.909,0,0,1,3.424.511,3.954,3.954,0,0,1,2.08,1.68,6.085,6.085,0,0,1,.7,3.152v7.329a.914.914,0,0,0,.48.688,2.917,2.917,0,0,0,.96.336l-.1,2.944q-.512,0-1.008.016t-.944,0a5.567,5.567,0,0,1-.8-.08,3.6,3.6,0,0,1-1.264-.383,3.717,3.717,0,0,1-.848-.608q-.512.224-1.376.512a14.522,14.522,0,0,1-1.872.48,10.783,10.783,0,0,1-2.032.193A5.1,5.1,0,0,1,828.122-1672.561Zm5.008-6.064a2.213,2.213,0,0,0-1.52.625,2.179,2.179,0,0,0-.464,1.488,2.359,2.359,0,0,0,.432,1.5,1.593,1.593,0,0,0,1.328.544,6.843,6.843,0,0,0,1.28-.129,12.821,12.821,0,0,0,1.264-.3,7.628,7.628,0,0,0,.944-.337v-3.68Zm38.752,6.977v-8.1a14.791,14.791,0,0,0-.193-2.672,2.443,2.443,0,0,0-.72-1.456,2.459,2.459,0,0,0-1.615-.447,7.612,7.612,0,0,0-1.184.1,9.744,9.744,0,0,0-1.168.257q-.559.159-.912.288v12.032h-4.256v-22.241h4.256v6.753q.544-.193,1.3-.4t1.568-.368a7.831,7.831,0,0,1,1.489-.159,7.762,7.762,0,0,1,2.8.432,3.668,3.668,0,0,1,1.744,1.375,6.386,6.386,0,0,1,.912,2.48,21.716,21.716,0,0,1,.272,3.712v8.417Zm-55.552,0v-16.064h4.256v1.887a12.837,12.837,0,0,1,1.344-.879,15.6,15.6,0,0,1,1.744-.864,7.435,7.435,0,0,1,1.808-.528v4.128a11.131,11.131,0,0,0-1.76.432q-.929.3-1.744.656t-1.392.64v10.592Z" transform="translate(-758.313 1708.999)" fill="url(#radial-gradient)"/>
</svg>
