<svg xmlns="http://www.w3.org/2000/svg" width="24" height="24" viewBox="0 0 24 24">
  <path id="microchip-ai" d="M23.5,9a.5.5,0,0,0,0-1H22V6.5a4.584,4.584,0,0,0-.028-.5H23.5a.5.5,0,0,0,0-1H21.743A4.523,4.523,0,0,0,19,2.257V.5a.5.5,0,0,0-1,0V2.028A4.583,4.583,0,0,0,17.5,2H16V.5a.5.5,0,0,0-1,0V2H12.5V.5a.5.5,0,0,0-1,0V2H9V.5a.5.5,0,0,0-1,0V2H6.5a4.583,4.583,0,0,0-.5.028V.5a.5.5,0,0,0-1,0V2.257A4.523,4.523,0,0,0,2.257,5H.5a.5.5,0,0,0,0,1H2.028A4.583,4.583,0,0,0,2,6.5V8H.5a.5.5,0,0,0,0,1H2v2.5H.5a.5.5,0,0,0,0,1H2V15H.5a.5.5,0,0,0,0,1H2v1.5a4.583,4.583,0,0,0,.028.5H.5a.5.5,0,0,0,0,1H2.257A4.523,4.523,0,0,0,5,21.743V23.5a.5.5,0,0,0,1,0V21.972A4.584,4.584,0,0,0,6.5,22H8v1.5a.5.5,0,0,0,1,0V22h2.5v1.5a.5.5,0,0,0,1,0V22H15v1.5a.5.5,0,0,0,1,0V22h1.5a4.584,4.584,0,0,0,.5-.028V23.5a.5.5,0,0,0,1,0V21.743A4.523,4.523,0,0,0,21.743,19H23.5a.5.5,0,0,0,0-1H21.972A4.584,4.584,0,0,0,22,17.5V16h1.5a.5.5,0,0,0,0-1H22V12.5h1.5a.5.5,0,0,0,0-1H22V9Zm-6,12H6.5A3.5,3.5,0,0,1,3,17.5V6.5A3.5,3.5,0,0,1,6.5,3h11A3.5,3.5,0,0,1,21,6.5v11A3.5,3.5,0,0,1,17.5,21ZM17,7.5v9a.5.5,0,0,1-1,0v-9a.5.5,0,0,1,1,0Zm-5.162.872A1.924,1.924,0,0,0,9.981,7a1.87,1.87,0,0,0-1.7,1.363l-2.265,8a.5.5,0,0,0,.345.617A.492.492,0,0,0,6.5,17a.5.5,0,0,0,.48-.364l.744-2.628h4.589l.7,2.622a.5.5,0,1,0,.966-.259l-2.145-8Zm-3.83,4.636,1.24-4.38a.839.839,0,0,1,1.624,0l1.174,4.378Z" fill="#858585"/>
</svg>
