<svg xmlns="http://www.w3.org/2000/svg" width="20" height="19.949" viewBox="0 0 20 19.949">
  <path id="moon" d="M11.02,20.976a9.993,9.993,0,0,1-.958-19.943.891.891,0,0,1,.923.549.907.907,0,0,1-.245,1.045c-.995.853-1.478,2.327-1.478,4.506,0,4.662,2.149,5.6,5.617,5.6,2.238,0,3.673-.468,4.516-1.473a.908.908,0,0,1,1.6.67,9.962,9.962,0,0,1-9.976,9.047ZM8.073,3.344a8.186,8.186,0,1,0,10.6,10.595,10.115,10.115,0,0,1-3.8.612c-3.192,0-7.436-.769-7.436-7.416a10.021,10.021,0,0,1,.629-3.79Z" transform="translate(-1 -1.027)" fill="#39393a"/>
</svg>
