<svg id="Layer_1" viewBox="0 0 24 24" xmlns="http://www.w3.org/2000/svg" data-name="Layer 1"><path d="m9 13.707-1.146 1.146c-.195.195-.512.195-.707 0s-.195-.512 0-.707l1.146-1.146-1.146-1.146c-.195-.195-.195-.512 0-.707s.512-.195.707 0l1.146 1.146 1.146-1.146c.195-.195.512-.195.707 0s.195.512 0 .707l-1.146 1.146 1.146 1.146c.195.195.195.512 0 .707s-.512.195-.707 0zm7.854-2.561c-.195-.195-.512-.195-.707 0l-1.146 1.146-1.146-1.146c-.195-.195-.512-.195-.707 0s-.195.512 0 .707l1.146 1.146-1.146 1.146c-.195.195-.195.512 0 .707s.512.195.707 0l1.146-1.146 1.146 1.146c.195.195.512.195.707 0s.195-.512 0-.707l-1.146-1.146 1.146-1.146c.195-.195.195-.512 0-.707zm-2.196 6.158c-.037-.013-.93-.304-2.658-.304s-2.621.291-2.658.304c-.261.087-.402.368-.316.63s.371.405.63.319c.008-.002.799-.253 2.344-.253 1.774.011 2.184.251 2.5.278.209 0 .404-.132.475-.342.087-.262-.055-.545-.316-.632zm8.342-5.304c0 4.235-1.021 8.39-1.064 8.565-.041.166-.164.299-.326.354-.132.044-3.301 1.082-9.609 1.082s-9.477-1.038-9.609-1.082c-.162-.054-.285-.188-.327-.354-.043-.175-1.064-4.33-1.064-8.565s1.02-8.39 1.063-8.565c.042-.166.165-.299.327-.354.132-.044 3.3-1.082 9.609-1.082s9.478 1.038 9.609 1.082c.162.054.285.188.326.354.043.175 1.064 4.33 1.064 8.565zm-20.73-4h19.46c-.236-1.898-.563-3.441-.701-4.047-.87-.239-3.903-.953-9.029-.953s-8.159.714-9.03.953c-.137.606-.464 2.149-.7 4.047zm19.73 4c0-1.018-.064-2.038-.159-3h-19.682c-.095.962-.159 1.982-.159 3 0 3.5.744 7.047.97 8.047.871.239 3.904.953 9.03.953s8.159-.714 9.029-.953c.228-1 .971-4.547.971-8.047zm-14.5-5.75c.415 0 .75-.335.75-.75s-.335-.75-.75-.75-.75.335-.75.75.335.75.75.75zm-3 0c.415 0 .75-.335.75-.75s-.335-.75-.75-.75-.75.335-.75.75.335.75.75.75z"/></svg>