<svg xmlns="http://www.w3.org/2000/svg" width="24" height="24" viewBox="0 0 24 24">
  <path id="notes-medical" d="M15,13a1,1,0,0,1-2,0V11H11a1,1,0,0,1,0-2h2V7a1,1,0,0,1,2,0V9h2a1,1,0,0,1,0,2H15Zm9-8v8.373A4.024,4.024,0,0,1,22.828,16.2L20.2,18.828A4.024,4.024,0,0,1,17.373,20H9a5.006,5.006,0,0,1-5-5V5A5.006,5.006,0,0,1,9,0H19A5.006,5.006,0,0,1,24,5ZM9,18h8V15a2,2,0,0,1,2-2h3V5a3,3,0,0,0-3-3H9A3,3,0,0,0,6,5V15A3,3,0,0,0,9,18Zm8,4H5a3,3,0,0,1-3-3V7A1,1,0,0,0,0,7V19a5.006,5.006,0,0,0,5,5H17a1,1,0,0,0,0-2Z" fill="#39393a"/>
</svg>
