<svg xmlns="http://www.w3.org/2000/svg" width="26.677" height="28" viewBox="0 0 26.677 28">
  <g id="_01_align_center" data-name="01 align center" transform="translate(-0.494 0.004)">
    <path id="Path_411" data-name="Path 411" d="M27.043,18.894,24.011,7.965a10.87,10.87,0,0,0-21.089.549L.577,19.068a3.5,3.5,0,0,0,3.415,4.257H8.2a5.831,5.831,0,0,0,11.429,0h4.047a3.5,3.5,0,0,0,3.37-4.432ZM13.913,25.658a3.5,3.5,0,0,1-3.284-2.332H17.2a3.5,3.5,0,0,1-3.284,2.332ZM24.6,20.532a1.158,1.158,0,0,1-.933.461H3.992a1.166,1.166,0,0,1-1.138-1.419L5.2,9.019a8.538,8.538,0,0,1,16.56-.434l3.032,10.929a1.158,1.158,0,0,1-.19,1.018Z" transform="translate(0 0)" fill="#39393a"/>
  </g>
</svg>
