<svg xmlns="http://www.w3.org/2000/svg" width="20" height="20" viewBox="0 0 20 20">
  <path id="password-email" d="M18.578,7.843a.834.834,0,0,0-.592-.253.8.8,0,0,0-.6.244l-5.6,5.6a2.568,2.568,0,0,1-3.536,0L2.618,7.794a.833.833,0,0,0-.589-.244h0a.831.831,0,0,0-.591.25A4.976,4.976,0,0,0,0,11.3v4.534A4.171,4.171,0,0,0,4.167,20H15.833A4.171,4.171,0,0,0,20,15.833V11.327a4.973,4.973,0,0,0-1.422-3.483Zm-.245,7.99a2.5,2.5,0,0,1-2.5,2.5H4.167a2.5,2.5,0,0,1-2.5-2.5V11.3a3.3,3.3,0,0,1,.442-1.655l4.969,4.97a4.174,4.174,0,0,0,5.892,0L17.9,9.686a3.3,3.3,0,0,1,.436,1.64v4.507ZM5,7.5H7.212l1.9,1.569a1.412,1.412,0,0,0,1.792,0L12.833,7.5H15A2.5,2.5,0,0,0,17.5,5V2.5A2.5,2.5,0,0,0,15,0H5A2.5,2.5,0,0,0,2.5,2.5V5A2.5,2.5,0,0,0,5,7.5Zm8-4.362a.666.666,0,1,1,.943-.943l.613.612.613-.613a.666.666,0,0,1,.943.943L15.5,3.75l.612.612a.666.666,0,1,1-.942.943l-.613-.613-.613.613A.666.666,0,0,1,13,4.362l.612-.612L13,3.138Zm-4.608,0a.667.667,0,0,1,.943-.943l.612.612.612-.612a.667.667,0,0,1,.943.943l-.612.612.612.612a.666.666,0,1,1-.942.943l-.612-.612L9.336,5.3a.666.666,0,0,1-.942-.943l.612-.612-.612-.612Zm-4.579,0a.667.667,0,1,1,.943-.943l.612.612.612-.612a.667.667,0,0,1,.942.943L6.31,3.75l.612.612A.666.666,0,1,1,5.98,5.3l-.612-.612L4.757,5.3a.666.666,0,0,1-.942-.943l.612-.612-.612-.612Z" fill="#39393a"/>
</svg>
