<svg xmlns="http://www.w3.org/2000/svg" width="26" height="13" viewBox="0 0 26 13">
  <path id="password" d="M17.545,18.818A1.182,1.182,0,0,1,16.364,20H11.636a1.182,1.182,0,1,1,0-2.364h4.727A1.182,1.182,0,0,1,17.545,18.818ZM17.2,7.346a1.182,1.182,0,0,0-1.671,0L14,8.874,12.472,7.346A1.182,1.182,0,1,0,10.8,9.017l1.528,1.528L10.8,12.074a1.182,1.182,0,1,0,1.671,1.671L14,12.217l1.528,1.528A1.182,1.182,0,1,0,17.2,12.073l-1.528-1.528L17.2,9.017a1.182,1.182,0,0,0,0-1.671Zm8.619,10.29H21.091a1.182,1.182,0,1,0,0,2.364h4.727a1.182,1.182,0,1,0,0-2.364Zm-.693-7.091,1.528-1.528a1.182,1.182,0,1,0-1.671-1.671L23.455,8.874,21.926,7.346a1.182,1.182,0,1,0-1.671,1.671l1.528,1.528-1.528,1.528a1.182,1.182,0,1,0,1.671,1.671l1.528-1.528,1.528,1.528a1.182,1.182,0,1,0,1.671-1.671ZM6.909,17.636H2.182a1.182,1.182,0,0,0,0,2.364H6.909a1.182,1.182,0,0,0,0-2.364Zm.836-10.29a1.182,1.182,0,0,0-1.671,0L4.545,8.874,3.017,7.346A1.182,1.182,0,1,0,1.346,9.017l1.528,1.528L1.346,12.074a1.182,1.182,0,1,0,1.671,1.671l1.528-1.528,1.528,1.528a1.182,1.182,0,1,0,1.671-1.671L6.217,10.545,7.745,9.017a1.182,1.182,0,0,0,0-1.671Z" transform="translate(-1 -7)" fill="#858585"/>
</svg>
