<svg xmlns="http://www.w3.org/2000/svg"  viewBox="0 0 16 15.968">
  <path id="pen-circle" d="M15.646,5.579,7.122,14.1A5.5,5.5,0,0,0,5.5,18.021V19.96a.616.616,0,0,0,.615.615H8.054a5.5,5.5,0,0,0,3.918-1.622L20.5,10.429a3.429,3.429,0,0,0,0-4.849,3.509,3.509,0,0,0-4.848,0ZM11.1,18.082a4.28,4.28,0,0,1-3.047,1.262H6.731V18.02a4.282,4.282,0,0,1,1.262-3.047l6.287-6.287,3.108,3.108L11.1,18.08Zm8.524-8.524-1.366,1.366L15.152,7.816,16.518,6.45a2.247,2.247,0,0,1,3.108,0,2.2,2.2,0,0,1,0,3.109Z" transform="translate(-5.5 -4.607)" fill="#f2f5f7"/>
</svg>
