<svg xmlns="http://www.w3.org/2000/svg" width="30" height="30" viewBox="0 0 30 30">
  <path id="circle-user_10_" data-name="circle-user (10)" d="M16,1C5.486,1,1,5.486,1,16S5.486,31,16,31s15-4.486,15-15S26.514,1,16,1ZM10.146,27.557c.514-2.105,1.868-3.375,5.854-3.375s5.341,1.27,5.854,3.375A20.318,20.318,0,0,1,16,28.273a20.318,20.318,0,0,1-5.854-.716Zm14.2-1.152c-1.38-4.387-5.34-4.951-8.344-4.951s-6.964.563-8.344,4.951C4.892,24.564,3.729,21.258,3.729,16,3.727,7.053,7.053,3.727,16,3.727S28.273,7.053,28.273,16c0,5.26-1.163,8.565-3.929,10.406ZM16,7.818c-3.67,0-5.455,1.785-5.455,5.455S12.33,18.727,16,18.727s5.455-1.785,5.455-5.455S19.67,7.818,16,7.818ZM16,16c-2.167,0-2.727-.56-2.727-2.727s.56-2.727,2.727-2.727,2.727.56,2.727,2.727S18.167,16,16,16Z" transform="translate(-1 -1)" fill="#007571"/>
</svg>
