<svg xmlns="http://www.w3.org/2000/svg" xmlns:xlink="http://www.w3.org/1999/xlink" width="24.003" height="24" viewBox="0 0 24.003 24">
  <defs>
    <linearGradient id="linear-gradient" x1="0.867" y1="0.889" x2="0.116" y2="0.083" gradientUnits="objectBoundingBox">
      <stop offset="0" stop-color="#2b61b2"/>
      <stop offset="1" stop-color="#bf6bff"/>
    </linearGradient>
  </defs>
  <path id="hands-clapping_2_" data-name="hands-clapping (2)" d="M11,4a1.024,1.024,0,0,1-.71-.29,1,1,0,0,1,0-1.41l1-1A1,1,0,1,1,12.7,2.71l-1,1a.982.982,0,0,1-.71.29ZM5.71,3.71a1,1,0,0,0,0-1.41l-1-1A1,1,0,0,0,3.3,2.71l1,1A.982.982,0,0,0,5.01,4a1.024,1.024,0,0,0,.71-.29ZM9,2V1A1,1,0,0,0,7,1V2A1,1,0,0,0,9,2ZM24,8a2,2,0,0,0-4,0l.03,8.46a7.471,7.471,0,0,1-2.38,5.52,1.009,1.009,0,0,1-.21.17,1.006,1.006,0,0,0-.33,1.38.991.991,0,0,0,.85.47.98.98,0,0,0,.52-.15,7.558,7.558,0,0,0,1.34-1.08l2.51-2.96a7.024,7.024,0,0,0,1.65-4.09v.02l.01-7.75ZM18,8a2,2,0,0,0-4,0V9.85L9.56,5.41A1.5,1.5,0,0,0,7.44,7.53l3.43,3.43a.639.639,0,0,1-.95.82L4.56,6.41A1.5,1.5,0,0,0,2.44,8.53l5.43,5.43a.639.639,0,0,1-.95.82L2.56,10.41A1.5,1.5,0,0,0,.44,12.53L4.8,16.89a.635.635,0,0,1-.82.94L2.56,16.41A1.5,1.5,0,1,0,.44,18.53l2.93,2.93a8.667,8.667,0,0,0,12.26,0A8.033,8.033,0,0,0,18,15.74V7.99Z" transform="translate(0.003)" fill="url(#linear-gradient)"/>
</svg>
