<svg xmlns="http://www.w3.org/2000/svg" width="20" height="22.345" viewBox="0 0 20 22.345">
  <g id="Union_1" data-name="Union 1" transform="translate(-0.613)" fill="none">
    <path d="M1.131,22.007a1.45,1.45,0,0,1-.179-2.042l3.726-4.441q.03-.036.061-.069a9.158,9.158,0,1,1,2.277,1.769,1.46,1.46,0,0,1-.118.162L3.173,21.828a1.449,1.449,0,0,1-2.041.179Z" stroke="none"/>
    <path d="M 11.43539905548096 15.85640239715576 C 15.11776924133301 15.85640239715576 18.11359977722168 12.86057186126709 18.11359977722168 9.178202629089355 C 18.11359977722168 5.495832443237305 15.11776924133301 2.500002384185791 11.43539905548096 2.500002384185791 C 7.753029346466064 2.500002384185791 4.757199287414551 5.495832443237305 4.757199287414551 9.178202629089355 C 4.757199287414551 10.88162231445312 5.398549556732178 12.50356197357178 6.563119411468506 13.74524211883545 L 7.292131900787354 14.5225305557251 L 8.222259521484375 15.03445243835449 C 9.199259757995605 15.57218265533447 10.31033992767334 15.85640239715576 11.43539905548096 15.85640239715576 M 2.061589479446411 22.34538269042969 C 1.732989430427551 22.34538269042969 1.402619481086731 22.23430252075195 1.131299495697021 22.00680160522461 C 0.5174995064735413 21.49200248718262 0.4382994771003723 20.57760238647461 0.9521994590759277 19.96470260620117 L 4.678199291229248 15.52410221099854 C 4.698089599609375 15.50042247772217 4.718589305877686 15.47756195068359 4.73962926864624 15.45547199249268 C 3.200069427490234 13.81396198272705 2.25719952583313 11.60617256164551 2.25719952583313 9.178202629089355 C 2.25719952583313 4.109402179718018 6.366599559783936 2.298889057783526e-06 11.43539905548096 2.298889057783526e-06 C 16.50419998168945 2.298889057783526e-06 20.61359977722168 4.109402179718018 20.61359977722168 9.178202629089355 C 20.61359977722168 14.24700260162354 16.50419998168945 18.35640144348145 11.43539905548096 18.35640144348145 C 9.833459854125977 18.35640144348145 8.327669143676758 17.94611167907715 7.016819477081299 17.22464179992676 C 6.981609344482422 17.28068161010742 6.942269325256348 17.33499145507812 6.898499488830566 17.3871021270752 L 3.172499418258667 21.82770156860352 C 2.886099576950073 22.16928291320801 2.47525954246521 22.34536170959473 2.061589479446411 22.34538269042969 Z" stroke="none" fill="#858585"/>
  </g>
</svg>
