<svg xmlns="http://www.w3.org/2000/svg" width="20" height="19.999" viewBox="0 0 20 19.999">
  <path id="settings-window" d="M8.226,13.137a.834.834,0,0,0-1.134-.319l-.526.295A3.326,3.326,0,0,0,5,12.2v-.535a.833.833,0,1,0-1.667,0V12.2a3.322,3.322,0,0,0-1.566.912l-.526-.295a.833.833,0,0,0-.815,1.453l.531.3a2.993,2.993,0,0,0,0,1.695l-.531.3a.833.833,0,0,0,.815,1.453l.526-.295a3.326,3.326,0,0,0,1.566.912v.535a.833.833,0,0,0,1.667,0v-.535a3.322,3.322,0,0,0,1.566-.912l.526.295a.833.833,0,0,0,.815-1.453l-.531-.3a2.993,2.993,0,0,0,0-1.695l.531-.3a.834.834,0,0,0,.319-1.134Zm-4.06,3.946a1.667,1.667,0,1,1,1.667-1.667A1.668,1.668,0,0,1,4.166,17.082ZM5,3.75A1.25,1.25,0,1,1,3.75,2.5,1.25,1.25,0,0,1,5,3.75Zm3.333,0A1.25,1.25,0,1,1,7.083,2.5,1.25,1.25,0,0,1,8.333,3.75ZM15.833,0H4.166A4.171,4.171,0,0,0,0,4.166V10a.833.833,0,1,0,1.667,0V7.5H18.332V9.166a.833.833,0,0,0,1.667,0v-5A4.171,4.171,0,0,0,15.833,0ZM1.667,5.833V4.166a2.5,2.5,0,0,1,2.5-2.5H15.833a2.5,2.5,0,0,1,2.5,2.5V5.833ZM20,14.15a.834.834,0,0,0-.488-.743L12.2,10.089a1.708,1.708,0,0,0-1.67.357,1.644,1.644,0,0,0-.414,1.836l3.286,7.229A.832.832,0,0,0,14.15,20h.016a.835.835,0,0,0,.746-.461l1.15-2.3,2.516,2.516a.833.833,0,0,0,1.178-1.178L17.24,16.06l2.3-1.149A.834.834,0,0,0,20,14.15Zm-8.333-2.5.017.017-.012,0ZM14.2,17.231l-2.525-5.556L17.232,14.2l-1.772.885a.835.835,0,0,0-.372.372L14.2,17.23Z" fill="#39393a"/>
</svg>
