<svg xmlns="http://www.w3.org/2000/svg" width="20.022" height="20" viewBox="0 0 20.022 20">
  <path id="share" d="M16.105,12.222a3.883,3.883,0,0,0-3.2,1.687L7.483,11.459a3.811,3.811,0,0,0,0-2.906L12.9,6.091a3.883,3.883,0,1,0-.689-2.2,3.861,3.861,0,0,0,.067.655L6.523,7.16a3.89,3.89,0,1,0-.012,5.689l5.773,2.606a3.946,3.946,0,0,0-.066.654,3.889,3.889,0,1,0,3.888-3.888Zm0-10.555a2.222,2.222,0,1,1-2.222,2.222,2.222,2.222,0,0,1,2.222-2.222ZM3.884,12.222A2.222,2.222,0,1,1,6.106,10a2.222,2.222,0,0,1-2.222,2.222Zm12.221,6.11a2.222,2.222,0,1,1,2.222-2.222,2.222,2.222,0,0,1-2.222,2.222Z" transform="translate(0.027 0.001)" fill="#39393a"/>
</svg>
