<svg xmlns="http://www.w3.org/2000/svg" width="22.499" height="23.999" viewBox="0 0 22.499 23.999">
  <path id="smiling-boy" d="M14.5,13A1.5,1.5,0,1,1,16,11.5,1.5,1.5,0,0,1,14.5,13Zm7.35-4.725A10,10,0,0,0,2.226,7.9L1.5,12H3a12.12,12.12,0,0,0,5.184-1.2,1.5,1.5,0,1,0,1.45-.782,16.789,16.789,0,0,0,5.288-5.25A5.949,5.949,0,0,0,13.029,4.1C11.491,6.379,8.218,9.564,3.894,9.959l.3-1.669a8,8,0,0,1,15.765.86l.079.745.738.134A1.5,1.5,0,0,1,20.5,13c-.182,0-.9-.145-1.088-.171l-.281.8C18.215,16.221,15.131,19,12,19c-3.026,0-6.023-2.62-7.041-5.154A13.562,13.562,0,0,1,2.88,14,10.79,10.79,0,0,0,8,19.943V24h2V20.731a7.638,7.638,0,0,0,4,0V24h2V19.952a11.04,11.04,0,0,0,4.732-4.961A3.5,3.5,0,0,0,21.85,8.274ZM12,17a3.249,3.249,0,0,0,3-2H9A3.25,3.25,0,0,0,12,17Z" transform="translate(-1.501)" fill="#858585"/>
</svg>
