<svg xmlns="http://www.w3.org/2000/svg" width="24.007" height="24" viewBox="0 0 24.007 24">
  <path id="smiling-girl" d="M14.5,13A1.5,1.5,0,1,1,16,11.5,1.5,1.5,0,0,1,14.5,13Zm8.821,9.745A3.215,3.215,0,0,1,20.762,24H14V20.738a7.648,7.648,0,0,1-4,0V24L3.237,24A3.237,3.237,0,0,1,.065,20.116L1.147,14c.089,0,2,.005,2.033-.011l-1.15,6.5a1.249,1.249,0,0,0,.249,1.054A1.235,1.235,0,0,0,3.237,22H8V19.937a11.081,11.081,0,0,1-3.352-2.761l.51-2.879C6.322,16.68,9.138,19,12,19c3.13,0,6.214-2.781,7.131-5.378l.281-.8c.191.027.906.172,1.088.171a1.5,1.5,0,0,0,.27-2.971L20.031,9.9l-.079-.745A8,8,0,0,0,4.187,8.29l-.3,1.669c4.324-.4,7.6-3.58,9.135-5.864a5.949,5.949,0,0,1,1.893.669,16.778,16.778,0,0,1-5.288,5.25A1.5,1.5,0,1,1,8,11.5a1.477,1.477,0,0,1,.184-.7A12.116,12.116,0,0,1,3,12H1.5l.725-4.1a10,10,0,0,1,19.624.372,3.477,3.477,0,0,1,1,5.793l1.057,5.959a3.171,3.171,0,0,1-.591,2.718Zm-1.362-2.292-.979-5.5c-.084.012-.163.035-.249.041A11.04,11.04,0,0,1,16,19.955V22h4.762a1.236,1.236,0,0,0,1.2-1.547ZM12,17a3.249,3.249,0,0,0,3-2H9a3.25,3.25,0,0,0,3,2Z" transform="translate(0 -0.001)" fill="#858585"/>
</svg>
