<svg xmlns="http://www.w3.org/2000/svg" width="20" height="20.385" viewBox="0 0 20 20.385">
  <g id="Polygon_2" data-name="Polygon 2" fill="none">
    <path d="M9.08,2.157a1,1,0,0,1,1.84,0l1.8,4.23a1,1,0,0,0,.8.6l4.424.546a1,1,0,0,1,.579,1.705l-3.371,3.318a1,1,0,0,0-.281.9l.893,4.731a1,1,0,0,1-1.5,1.041L10.517,16.96a1,1,0,0,0-1.035,0L5.735,19.226a1,1,0,0,1-1.5-1.041l.893-4.731a1,1,0,0,0-.281-.9L1.475,9.238a1,1,0,0,1,.579-1.705l4.424-.546a1,1,0,0,0,.8-.6Z" stroke="none"/>
    <path d="M 10.00000095367432 3.823602676391602 L 8.655671119689941 6.97567081451416 C 8.307300567626953 7.792540550231934 7.543371200561523 8.367490768432617 6.66201114654541 8.476160049438477 L 3.265010833740234 8.895011901855469 L 5.89884090423584 11.48721027374268 C 6.493921279907227 12.0728702545166 6.756711006164551 12.91234016418457 6.60183048248291 13.73274993896484 L 5.916445732116699 17.36356735229492 L 8.70625114440918 15.6763801574707 C 9.096521377563477 15.44035053253174 9.543890953063965 15.31558990478516 10.00000095367432 15.31558990478516 C 10.45611095428467 15.31558990478516 10.90348052978516 15.44035053253174 11.29373073577881 15.67637062072754 L 14.08355712890625 17.36356735229492 L 13.39816093444824 13.73274040222168 C 13.24330139160156 12.91231060028076 13.50610160827637 12.07286071777344 14.10115051269531 11.48723030090332 L 16.73499298095703 8.895012855529785 L 13.33799076080322 8.476160049438477 C 12.45664024353027 8.367490768432617 11.69272136688232 7.792550086975098 11.34432125091553 6.975690841674805 L 10.00000095367432 3.823602676391602 M 10.00000095367432 1.549068450927734 C 10.37352848052979 1.549068450927734 10.74705600738525 1.75163459777832 10.91984081268311 2.156770706176758 L 12.72408103942871 6.387240409851074 C 12.86393165588379 6.715140342712402 13.16775131225586 6.94381046295166 13.52154159545898 6.987430572509766 L 17.94570159912109 7.532930374145508 C 18.77603149414062 7.635310173034668 19.12105178833008 8.651280403137207 18.5247802734375 9.238130569458008 L 15.15333080291748 12.55630016326904 C 14.91575050354004 12.79012012481689 14.81030082702637 13.12695026397705 14.87213134765625 13.45450973510742 L 15.7651309967041 18.18509101867676 C 15.92552089691162 19.03475952148438 15.00488090515137 19.67374038696289 14.26499080657959 19.22627067565918 L 10.51749134063721 16.95989990234375 C 10.19933032989502 16.76749038696289 9.800671577453613 16.76749038696289 9.482510566711426 16.95989990234375 L 5.735011100769043 19.22627067565918 C 4.995119094848633 19.67374038696289 4.074470520019531 19.03476142883301 4.234870910644531 18.18509101867676 L 5.127861022949219 13.45450973510742 C 5.189701080322266 13.12695026397705 5.084251403808594 12.79012012481689 4.846671104431152 12.55630016326904 L 1.475221633911133 9.238130569458008 C 0.8789501190185547 8.651289939880371 1.223970413208008 7.635310173034668 2.054300308227539 7.532930374145508 L 6.478450775146484 6.987430572509766 C 6.832250595092773 6.94381046295166 7.13607120513916 6.715140342712402 7.275911331176758 6.387240409851074 L 9.080161094665527 2.156770706176758 C 9.252945899963379 1.75163459777832 9.626473426818848 1.549068450927734 10.00000095367432 1.549068450927734 Z" stroke="none" fill="#2b61b2"/>
  </g>
</svg>
