<svg id="user-add" xmlns="http://www.w3.org/2000/svg" width="18" height="18" viewBox="0 0 18 18">
  <path id="Path_412" data-name="Path 412" d="M21.25,10.25h-1.5V8.75a.75.75,0,0,0-1.5,0v1.5h-1.5a.75.75,0,0,0,0,1.5h1.5v1.5a.75.75,0,0,0,1.5,0v-1.5h1.5a.75.75,0,0,0,0-1.5Z" transform="translate(-4 -2)" fill="#f2f5f7"/>
  <path id="Path_413" data-name="Path 413" d="M7.5,9A4.5,4.5,0,1,0,3,4.5,4.5,4.5,0,0,0,7.5,9Zm0-7.5a3,3,0,1,1-3,3,3,3,0,0,1,3-3Z" transform="translate(-0.75)" fill="#f2f5f7"/>
  <path id="Path_414" data-name="Path 414" d="M6.75,14A6.757,6.757,0,0,0,0,20.75a.75.75,0,1,0,1.5,0,5.25,5.25,0,0,1,10.5,0,.75.75,0,0,0,1.5,0A6.757,6.757,0,0,0,6.75,14Z" transform="translate(0 -3.5)" fill="#f2f5f7"/>
</svg>
