<svg xmlns="http://www.w3.org/2000/svg" width="24" height="28.866" viewBox="0 0 24 28.866">
  <path id="user-graduate" d="M26.007,5.409A2.386,2.386,0,0,0,24.4,3.131L16.64.393A7.806,7.806,0,0,0,11.476.385L3.622,3.133a2.412,2.412,0,0,0,0,4.553L6.8,8.794v2.018a7.2,7.2,0,1,0,14.4,0V8.793l2.4-.838v5.256a1.2,1.2,0,0,0,2.4,0s0-7.793,0-7.8Zm-7.206,5.4a4.8,4.8,0,1,1-9.6,0V9.631l2.235.78a7.832,7.832,0,0,0,5.131,0l2.236-.78ZM15.774,8.144a5.421,5.421,0,0,1-3.55,0L4.415,5.4l7.854-2.747a5.4,5.4,0,0,1,3.572,0L23.6,5.415,15.773,8.144Zm8.218,19.228a1.2,1.2,0,1,1-2.351.486,7.829,7.829,0,0,0-3.524-5.036l-3.195,3.785a1.242,1.242,0,0,1-1.843,0L9.921,22.82A7.763,7.763,0,0,0,6.36,27.858a1.2,1.2,0,0,1-2.351-.486,10.24,10.24,0,0,1,4.605-6.587,2.438,2.438,0,0,1,3.15.5L14,23.963l2.235-2.682a2.437,2.437,0,0,1,3.149-.5A10.244,10.244,0,0,1,23.992,27.372Z" transform="translate(-2.007 0.051)" fill="#858585"/>
</svg>
