<svg xmlns="http://www.w3.org/2000/svg" width="20" height="20.692" viewBox="0 0 20 20.692">
  <path id="user-gear" d="M12.933,5.173a5.173,5.173,0,1,0-5.173,5.173A5.178,5.178,0,0,0,12.933,5.173ZM7.759,8.622a3.449,3.449,0,1,1,3.449-3.449A3.452,3.452,0,0,1,7.759,8.622Zm-.007,4.257A.862.862,0,0,1,7,13.841a6.04,6.04,0,0,0-5.28,5.989A.862.862,0,0,1,0,19.83a7.767,7.767,0,0,1,6.791-7.7.865.865,0,0,1,.962.749ZM19.568,16.5l-.84-.485a3.952,3.952,0,0,0,0-2.711l.84-.485a.862.862,0,0,0-.862-1.493l-.839.485a4.286,4.286,0,0,0-2.348-1.374V9.484a.862.862,0,0,0-1.724,0v.949a4.3,4.3,0,0,0-2.348,1.374l-.839-.485a.862.862,0,1,0-.862,1.493l.84.485a3.952,3.952,0,0,0,0,2.711l-.84.485a.862.862,0,1,0,.862,1.493l.839-.485a4.286,4.286,0,0,0,2.348,1.374v.949a.862.862,0,0,0,1.724,0v-.949A4.3,4.3,0,0,0,17.867,17.5l.839.485a.862.862,0,1,0,.862-1.493Zm-4.911.747a2.587,2.587,0,1,1,2.587-2.587A2.59,2.59,0,0,1,14.657,17.243Z" transform="translate(0.001)" fill="#39393a"/>
</svg>
