<svg xmlns="http://www.w3.org/2000/svg" width="24" height="32" viewBox="0 0 24 32">
  <path id="user-tie-hair_1_" data-name="user-tie-hair (1)" d="M14.9,16a8,8,0,1,0-8-8A8.008,8.008,0,0,0,14.9,16Zm0-13.333a5.27,5.27,0,0,1,1.507.243,6.361,6.361,0,0,1-5.792,3.757A6.289,6.289,0,0,1,9.774,6.6,5.326,5.326,0,0,1,14.9,2.667ZM10.612,9.333a9.007,9.007,0,0,0,8.081-5.071,5.326,5.326,0,1,1-8.961,5,8.823,8.823,0,0,0,.88.068ZM27,30.667a1.333,1.333,0,1,1-2.667,0,9.343,9.343,0,0,0-6.145-8.761L16.166,24.94l1.457,5.32a1.482,1.482,0,0,1-1.6,1.74H13.98a1.483,1.483,0,0,1-1.6-1.74l1.457-5.32-2.023-3.035a9.34,9.34,0,0,0-6.145,8.761,1.333,1.333,0,1,1-2.667,0,12,12,0,0,1,24,0Z" transform="translate(-3.001)" fill="#858585"/>
</svg>
