<svg xmlns="http://www.w3.org/2000/svg" width="14" height="14.014" viewBox="0 0 14 14.014">
  <path id="user-pen" d="M6.417,8.007c2.39,0,3.5-1.113,3.5-3.5S8.806,1,6.417,1s-3.5,1.113-3.5,3.5S4.027,8.007,6.417,8.007Zm0-5.733c1.687,0,2.229.542,2.229,2.229S8.1,6.733,6.417,6.733,4.187,6.191,4.187,4.5,4.729,2.274,6.417,2.274Zm.9,8.319c-.275-.025-.576-.038-.9-.038-2.978,0-4.061,1-4.136,3.838a.637.637,0,0,1-.636.62H1.627a.637.637,0,0,1-.62-.654C1.1,10.847,2.769,9.28,6.417,9.28c.359,0,.7.015,1.014.044a.637.637,0,1,1-.118,1.268Zm7.169-2.656-.01-.01a1.918,1.918,0,0,0-2.7-.006L8.325,11.368a3.1,3.1,0,0,0-.913,2.07l-.04.91a.641.641,0,0,0,.664.664l.916-.039a3.143,3.143,0,0,0,2.08-.906l3.436-3.437a1.971,1.971,0,0,0,.014-2.694Zm-.9,1.78-3.447,3.448A1.866,1.866,0,0,1,8.9,13.7l-.222.01.01-.215a1.833,1.833,0,0,1,.54-1.224l3.448-3.447a.649.649,0,0,1,.89,0,.7.7,0,0,1,.017.9Z" transform="translate(-1.007 -1)" fill="#007571"/>
</svg>
