<svg xmlns="http://www.w3.org/2000/svg" width="18" height="18.001" viewBox="0 0 18 18.001">
  <path id="user-forbidden-alt" d="M16.688,16.672A4.5,4.5,0,1,0,13.5,18,4.486,4.486,0,0,0,16.688,16.672ZM16.5,13.5a2.968,2.968,0,0,1-.425,1.514l-4.089-4.09A2.968,2.968,0,0,1,13.5,10.5a3,3,0,0,1,3,3Zm-6,0a2.968,2.968,0,0,1,.425-1.514l4.089,4.09A2.968,2.968,0,0,1,13.5,16.5a3,3,0,0,1-3-3ZM6.75,9a4.5,4.5,0,1,0-4.5-4.5A4.5,4.5,0,0,0,6.75,9Zm0-7.5a3,3,0,1,1-3,3A3,3,0,0,1,6.75,1.5Zm1.494,9.89a.747.747,0,0,1-.837.651A5.256,5.256,0,0,0,1.5,17.251a.75.75,0,0,1-1.5,0,6.753,6.753,0,0,1,7.593-6.7.749.749,0,0,1,.651.838Z" fill="#ff2e2e"/>
</svg>
