<svg xmlns="http://www.w3.org/2000/svg" width="18" height="18.002" viewBox="0 0 18 18.002">
  <path id="user-tag" d="M17.379,12.085,14.6,9.3a2.253,2.253,0,0,0-1.889-.642l-2.305.3a1.786,1.786,0,0,0-1.538,1.62l-.179,2.235a2.25,2.25,0,0,0,.649,1.766l2.781,2.793a2.112,2.112,0,0,0,1.5.619h.009a2.108,2.108,0,0,0,1.5-.632l2.254-2.283a2.128,2.128,0,0,0-.01-3Zm-1.057,1.942-2.254,2.283a.62.62,0,0,1-.441.186h0a.619.619,0,0,1-.438-.18l-2.779-2.79a.745.745,0,0,1-.216-.589L10.37,10.7a.278.278,0,0,1,.239-.252s2.369-.311,2.4-.311a.754.754,0,0,1,.533.221l2.775,2.786a.626.626,0,0,1,0,.881Zm-2.82-1.65a1.125,1.125,0,1,1-1.125-1.125A1.126,1.126,0,0,1,13.5,12.376ZM6,9A4.5,4.5,0,1,0,1.5,4.5,4.505,4.505,0,0,0,6,9ZM6,1.5a3,3,0,1,1-3,3A3,3,0,0,1,6,1.5Zm1.5,9.751a.75.75,0,0,1-.75.75A5.257,5.257,0,0,0,1.5,17.252a.75.75,0,1,1-1.5,0A6.759,6.759,0,0,1,6.751,10.5.75.75,0,0,1,7.5,11.251Z" fill="#f2f5f7"/>
</svg>
